<svg width="10008" height="10008" viewBox="0 0 10008 10008" fill="none" xmlns="http://www.w3.org/2000/svg">
<g clip-path="url(#clip0_1702_276)" filter="url(#filter0_d_1702_276)">
<rect width="10000" height="10000" transform="translate(4)" fill="white"/>
<path d="M10005 4000H7984V6000H10005V4000Z" fill="white"/>
<path d="M2004 0H3V2000H2004V0Z" fill="#C3BDFF"/>
<path d="M2017 4000H5V6000H2017V4000Z" fill="#D7D3FF"/>
<path d="M2003 2000H3V4000H2003V2000Z" fill="#5E50FF"/>
<path d="M2017 5993H5V8000H2017V5993Z" fill="#5E50FF"/>
<path d="M2017 8000H5V10000H2017V8000Z" fill="#D7D3FF"/>
<path fill-rule="evenodd" clip-rule="evenodd" d="M2010 9001C2010 9551.56 1563.12 9998 1012 9998C460.883 9998 14 9551.56 14 9001H2010Z" fill="#4A3AFF"/>
<path fill-rule="evenodd" clip-rule="evenodd" d="M2016 8000C2016 8551.67 1566.43 8999 1012 8999C457.57 8999 8 8551.67 8 8000H2016Z" fill="#9A92FF"/>
<path d="M4004 0H2004V2000H4004V0Z" fill="#AFA7FF"/>
<path d="M2002 0V166.272H3155.94L3240.99 0H2002Z" fill="#4A3AFF"/>
<path d="M4005 149.245H3165.28L3080.39 315.665H4005V149.245Z" fill="#4A3AFF"/>
<path d="M4005 652.503V486.231H2993.28L2908.23 652.503H4005Z" fill="#4A3AFF"/>
<path d="M2002 503.109H2983.94L3068.83 336.837H2002V503.109Z" fill="#4A3AFF"/>
<path d="M2002 840.096H2811.78L2896.83 673.677H2002V840.096Z" fill="#4A3AFF"/>
<path d="M4005 989.485V823.065H2821.13L2736.08 989.485H4005Z" fill="#4A3AFF"/>
<path d="M4005 1326.32V1159.9H2649.13L2564.08 1326.32H4005Z" fill="#4A3AFF"/>
<path d="M2002 1176.93H2639.79L2724.68 1010.51H2002V1176.93Z" fill="#4A3AFF"/>
<path d="M4005 1663.16V1496.74H2476.97L2391.92 1663.16H4005Z" fill="#4A3AFF"/>
<path d="M2002 1513.77H2467.63L2552.68 1347.5H2002V1513.77Z" fill="#4A3AFF"/>
<path d="M2002 1850.75H2295.63L2380.52 1684.33H2002V1850.75Z" fill="#4A3AFF"/>
<path d="M4005 2000V1833.73H2304.97L2219.93 2000H4005Z" fill="#4A3AFF"/>
<path d="M4005 4000H2017V6000H4005V4000Z" fill="#5E50FF"/>
<path d="M4003 2000H2003V4000H4003V2000Z" fill="#D7D3FF"/>
<mask id="mask0_1702_276" style="mask-type:alpha" maskUnits="userSpaceOnUse" x="2003" y="2000" width="2000" height="2000">
<path d="M4003 2000H2003V4000H4003V2000Z" fill="#D7D3FF"/>
</mask>
<g mask="url(#mask0_1702_276)">
<path d="M1776 3517.25C1788.74 3444.67 1883.45 3411.89 1952.96 3436C2022.47 3460.1 2070.57 3523.08 2113.79 3583.07C2157.01 3643.06 2202.27 3706.44 2269.88 3736.1C2379.63 3784.17 2505.78 3727.29 2606.05 3661.61C2706.32 3595.93 2809.97 3517.25 2929.88 3519.55C3021.21 3521.45 3111.72 3571.29 3200.88 3548.67C3271.47 3530.52 3322.82 3468.91 3353.17 3402.41C3383.52 3335.92 3395.04 3263.2 3415.77 3193.46C3513.33 2864.78 3820.23 2608.84 4161 2572" stroke="#4A3AFF" stroke-width="10" stroke-miterlimit="10"/>
<path d="M1806 3175.55C1844.42 3086.77 1979.61 3087.73 2055.65 3147.71C2131.7 3207.69 2169.64 3302.2 2224.48 3381.91C2279.32 3461.62 2371.63 3533.53 2465.21 3509.19C2560.86 3483.41 2604.38 3371.25 2614.27 3272.44C2624.15 3173.64 2617.77 3066.89 2671.82 2983.52C2725.86 2900.15 2823.43 2863.08 2919.56 2851.78C3015.69 2840.49 3112.62 2851.78 3209.23 2848.44C3489.97 2837.3 3871.46 2555.7 4032 2325" stroke="#4A3AFF" stroke-width="10" stroke-miterlimit="10"/>
<path d="M1799 2908C1878.31 2720.33 2100.49 2633.07 2304.08 2627.6C2507.67 2622.12 2707.98 2677.64 2911.42 2684.05C3403.07 2699.69 3890.5 2398.96 4098 1952" stroke="#4A3AFF" stroke-width="10" stroke-miterlimit="10"/>
<path d="M1835 3859.13C1882.9 3799.58 1975.42 3794.58 2045.16 3825.21C2114.9 3855.85 2168.88 3913.53 2223.64 3966.83C2278.4 4020.13 2340.03 4072.17 2415.08 4086.24C2521.01 4105.94 2625.08 4045.13 2707.77 3975.89C2790.46 3906.65 2867.53 3824.43 2969.1 3788.33C3076.6 3749.87 3195.48 3769.1 3305.94 3797.86C3416.4 3826.62 3526.24 3865.07 3640.29 3864.45C3734.85 3862.41 3826.96 3833.96 3906.24 3782.28C3985.53 3730.61 4048.82 3657.78 4089 3572L4057.8 3577.94" stroke="#4A3AFF" stroke-width="10" stroke-miterlimit="10"/>
<path d="M1832.24 1995.27C1822.75 2057.21 1829.25 2120.55 1851.13 2179.27C1873.01 2237.99 1909.54 2290.14 1957.25 2330.79C2005.79 2370.3 2063.61 2396.77 2125.25 2407.7C2186.88 2418.64 2250.29 2413.67 2309.47 2393.26C2364.32 2373.74 2413.54 2341.25 2465.73 2316.42C2517.92 2291.58 2577.93 2274.09 2634.49 2287.21C2717.31 2306.57 2770.91 2383.42 2835.6 2438.4C2951.55 2537.43 3116.88 2569.3 3266.11 2536.65C3415.34 2504.01 3547.38 2411.7 3643.48 2293.45C3739.59 2175.21 3801.78 2032.45 3841 1885" stroke="#4A3AFF" stroke-width="10" stroke-miterlimit="10"/>
<path d="M2203.29 1973.5C2163.01 1992.63 2157.55 2053.93 2185.18 2089.04C2212.81 2124.16 2261.04 2136.08 2305.53 2135.13C2350.02 2134.19 2393.41 2120.55 2437.74 2115.54C2550.44 2101.58 2663.3 2136.55 2768.98 2178.25C2874.66 2219.95 2979.24 2269.18 3091.63 2285.79C3204.02 2302.41 3329.05 2280.78 3407.73 2198.63C3450.07 2151.56 3474.54 2091 3476.82 2027.6C3479.11 1964.2 3459.06 1902.02 3420.21 1852" stroke="#4A3AFF" stroke-width="10" stroke-miterlimit="10"/>
</g>
<path d="M4004 6000H2017V8000H4004V6000Z" fill="#D7D3FF"/>
<path d="M8006 4017L9989 5008H8006V4017Z" fill="#4A3AFF"/>
<path d="M8006 5008L9989 6000H8006V5008Z" fill="#4A3AFF"/>
<path d="M4005 8000H2017V10000H4005V8000Z" fill="#5E50FF"/>
<path d="M2005.5 5666.25V4000.5H2492.1V5666.25H2005.5Z" fill="#D7D3FF" stroke="#C3BDFF"/>
<path d="M2852.07 4000C2848.87 4000 2852.07 5304.87 2852.07 5304.87V4000Z" fill="white"/>
<path d="M2852.07 4000C2848.87 4000 2852.07 5304.87 2852.07 5304.87" stroke="white" stroke-width="10" stroke-miterlimit="10"/>
<path d="M3302.47 4361.88V5666.75" stroke="white" stroke-width="10" stroke-miterlimit="10"/>
<path d="M6003 0H4003V2000H6003V0Z" fill="#D7D3FF"/>
<path d="M4160.54 166H5435.86" stroke="#4A3AFF" stroke-width="10" stroke-miterlimit="10"/>
<path d="M4160.54 236.168H5435.86" stroke="#4A3AFF" stroke-width="10" stroke-miterlimit="10"/>
<path d="M4160.54 306.5H5435.86" stroke="#4A3AFF" stroke-width="10" stroke-miterlimit="10"/>
<path d="M4160.54 376.668H5435.86" stroke="#4A3AFF" stroke-width="10" stroke-miterlimit="10"/>
<path d="M4160.54 446.836H5435.86" stroke="#4A3AFF" stroke-width="10" stroke-miterlimit="10"/>
<path d="M4160.54 517.17H5435.86" stroke="#4A3AFF" stroke-width="10" stroke-miterlimit="10"/>
<path d="M4160.54 587.338H5435.86" stroke="#4A3AFF" stroke-width="10" stroke-miterlimit="10"/>
<path d="M4160.54 657.506H5435.86" stroke="#4A3AFF" stroke-width="10" stroke-miterlimit="10"/>
<path d="M4160.54 727.674H5435.86" stroke="#4A3AFF" stroke-width="10" stroke-miterlimit="10"/>
<path d="M4160.54 798.006H5435.86" stroke="#4A3AFF" stroke-width="10" stroke-miterlimit="10"/>
<path d="M4160.54 868.174H5435.86" stroke="#4A3AFF" stroke-width="10" stroke-miterlimit="10"/>
<path d="M4160.54 938.342H5435.86" stroke="#4A3AFF" stroke-width="10" stroke-miterlimit="10"/>
<path d="M4160.54 1008.68H5435.86" stroke="#4A3AFF" stroke-width="10" stroke-miterlimit="10"/>
<path d="M4160.54 1078.84H5435.86" stroke="#4A3AFF" stroke-width="10" stroke-miterlimit="10"/>
<path d="M4160.54 1149.01H5435.86" stroke="#4A3AFF" stroke-width="10" stroke-miterlimit="10"/>
<path d="M4160.54 1219.34H5435.86" stroke="#4A3AFF" stroke-width="10" stroke-miterlimit="10"/>
<path d="M4160.54 1289.51H5435.86" stroke="#4A3AFF" stroke-width="10" stroke-miterlimit="10"/>
<path d="M6004 4000H4004V6000H6004V4000Z" fill="#D7D3FF"/>
<path d="M6002 2000H4002V4000H6002V2000Z" fill="#AFA7FF"/>
<path d="M6003 6000H4003V8000H6003V6000Z" fill="#9A92FF"/>
<path d="M6004 8000H4004V10000H6004V8000Z" fill="#D7D3FF"/>
<path d="M8006 0H6004V2000H8006V0Z" fill="#AFA7FF"/>
<path d="M8006 4000H6005V6000H8006V4000Z" fill="#4A3AFF"/>
<path d="M8003 2000H6003V4000H8003V2000Z" fill="#D7D3FF"/>
<path d="M8004 5990H6004V8000H8004V5990Z" fill="#EBE9FF"/>
<path d="M8005 8000H6005V10000H8005V8000Z" fill="#4A3AFF"/>
<path d="M10004 0H8004V2000H10004V0Z" fill="#D7D3FF"/>
<path d="M8186.8 664.3L8004 682.5L8001 0H8163.33L8186.8 664.3Z" fill="#4A3AFF"/>
<path d="M8616.4 621.631L8458.27 637.365L8394.4 0H8530.4L8616.4 621.631Z" fill="#4A3AFF"/>
<path d="M8994.27 584.162L8854.8 598.03L8737.33 0H8859.33L8994.27 584.162Z" fill="#4A3AFF"/>
<path d="M9329.07 550.961L9205.2 563.228L9045.73 0H9156L9329.07 550.961Z" fill="#4A3AFF"/>
<path d="M9627.87 521.359L9517.2 532.293L9324.8 0H9424.8L9627.87 521.359Z" fill="#4A3AFF"/>
<path d="M9896.27 494.691L9796.67 504.559L9578.27 0H9669.47L9896.27 494.691Z" fill="#4A3AFF"/>
<path d="M8460 2000H8226L8186.8 664.3L8358.4 647.232L8460 2000Z" fill="#4A3AFF"/>
<path d="M8994.27 1906.1L8802.8 1968.1L8616.4 621.631L8766.93 606.697L8994.27 1906.1Z" fill="#4A3AFF"/>
<path d="M9441.33 1761.56L9278.13 1814.36L8994.27 584.163L9127.33 570.963L9441.33 1761.56Z" fill="#4A3AFF"/>
<path d="M9825.2 1637.28L9684.53 1682.75L9329.07 550.961L9447.6 539.227L9825.2 1637.28Z" fill="#4A3AFF"/>
<path d="M10008 1206V1490L9627.87 521.36L9753 507L10008 1206Z" fill="#4A3AFF"/>
<path d="M10003 2000H8003V4000H10003V2000Z" fill="#9A92FF"/>
<path d="M8187 4000.38L9020.33 3167L9853.67 4000.38H8187Z" fill="#4A3AFF"/>
<path d="M10004 6000H8004V8000H10004V6000Z" fill="#4A3AFF"/>
<path d="M10005 8000H8005V10000H10005V8000Z" fill="#D7D3FF"/>
<path d="M3 2000L690.757 710H2002V2000H3Z" fill="#5E50FF"/>
<path d="M6006 4000H7129V5124C6831.16 5124 6545.52 5005.58 6334.92 4794.79C6124.32 4584 6006 4298.1 6006 4000Z" fill="white"/>
<path d="M4005 2000H5156V3152C4850.74 3152 4557.97 3030.63 4342.12 2814.59C4126.27 2598.55 4005 2305.53 4005 2000Z" fill="white"/>
<path d="M8006 2000H6883V3124C7180.84 3124 7466.48 3005.58 7677.08 2794.79C7887.68 2584 8006 2298.1 8006 2000Z" fill="white"/>
<path d="M7129 4753C7361.06 4753 7583.62 4845.83 7747.72 5011.06C7911.81 5176.29 8004 5400.4 8004 5634.07V6008H7129V4753Z" fill="#EBE9FF"/>
<path d="M5156 1756C5156 1432.91 5417.91 1171 5741 1171H5831C6154.09 1171 6416 1432.91 6416 1756V4000H5156V1756Z" fill="#4A3AFF"/>
<path d="M4600 8587C4600 8363.32 4781.32 8182 5005 8182C5228.68 8182 5410 8363.32 5410 8587V10000H4600V8587Z" fill="#4A3AFF"/>
<path d="M7285 8419.65C7285 8469.59 7194.5 9006 7194.5 9006C7194.5 9006 7104 8469.59 7104 8419.65C7104 8395.61 7113.53 8372.55 7130.51 8355.55C7147.48 8338.55 7170.5 8329 7194.5 8329C7218.5 8329 7241.52 8338.55 7258.49 8355.55C7275.47 8372.55 7285 8395.61 7285 8419.65Z" fill="white"/>
<path d="M1239 2419.65C1239 2469.59 1148.5 3006 1148.5 3006C1148.5 3006 1058 2469.59 1058 2419.65C1058 2395.61 1067.53 2372.55 1084.51 2355.55C1101.48 2338.55 1124.5 2329 1148.5 2329C1172.5 2329 1195.52 2338.55 1212.49 2355.55C1229.47 2372.55 1239 2395.61 1239 2419.65Z" fill="#EBE9FF"/>
<path d="M7104 9579.35C7104 9529.41 7194.5 8993 7194.5 8993C7194.5 8993 7285 9529.41 7285 9579.35C7285 9603.39 7275.47 9626.45 7258.49 9643.45C7241.52 9660.45 7218.5 9670 7194.5 9670C7170.5 9670 7147.48 9660.45 7130.51 9643.45C7113.53 9626.45 7104 9603.39 7104 9579.35Z" fill="white"/>
<path d="M1058 3579.35C1058 3529.41 1148.5 2993 1148.5 2993C1148.5 2993 1239 3529.41 1239 3579.35C1239 3603.39 1229.47 3626.45 1212.49 3643.45C1195.52 3660.45 1172.5 3670 1148.5 3670C1124.5 3670 1101.48 3660.45 1084.51 3643.45C1067.53 3626.45 1058 3603.39 1058 3579.35Z" fill="#EBE9FF"/>
<path d="M7774.35 9090C7724.42 9090 7188 8999.5 7188 8999.5C7188 8999.5 7724.42 8909 7774.35 8909C7798.39 8909 7821.45 8918.53 7838.45 8935.51C7855.45 8952.48 7865 8975.5 7865 8999.5C7865 9023.5 7855.45 9046.52 7838.45 9063.49C7821.45 9080.47 7798.39 9090 7774.35 9090Z" fill="white"/>
<path d="M1728.35 3090C1678.42 3090 1142 2999.5 1142 2999.5C1142 2999.5 1678.42 2909 1728.35 2909C1752.39 2909 1775.45 2918.53 1792.45 2935.51C1809.45 2952.48 1819 2975.5 1819 2999.5C1819 3023.5 1809.45 3046.52 1792.45 3063.49C1775.45 3080.47 1752.39 3090 1728.35 3090Z" fill="#EBE9FF"/>
<path d="M6614.65 8909C6664.58 8909 7201 8999.5 7201 8999.5C7201 8999.5 6664.58 9090 6614.65 9090C6590.61 9090 6567.55 9080.47 6550.55 9063.49C6533.55 9046.52 6524 9023.5 6524 8999.5C6524 8975.5 6533.55 8952.48 6550.55 8935.51C6567.55 8918.53 6590.61 8909 6614.65 8909Z" fill="white"/>
<path d="M568.65 2909C618.585 2909 1155 2999.5 1155 2999.5C1155 2999.5 618.585 3090 568.65 3090C544.608 3090 521.551 3080.47 504.551 3063.49C487.55 3046.52 478 3023.5 478 2999.5C478 2975.5 487.55 2952.48 504.551 2935.51C521.551 2918.53 544.608 2909 568.65 2909Z" fill="#EBE9FF"/>
<path d="M7669.4 8653.75C7633.82 8689.06 7190 9004 7190 9004C7190 9004 7505.56 8561.06 7540.94 8525.55C7549.38 8517.13 7559.39 8510.46 7570.41 8505.9C7581.43 8501.34 7593.24 8499 7605.17 8499C7617.1 8499 7628.91 8501.34 7639.93 8505.9C7650.95 8510.46 7660.96 8517.13 7669.4 8525.55C7677.83 8533.97 7684.52 8543.96 7689.09 8554.96C7693.65 8565.96 7696 8577.75 7696 8589.65C7696 8601.56 7693.65 8613.34 7689.09 8624.34C7684.52 8635.34 7677.83 8645.33 7669.4 8653.75Z" fill="white"/>
<path d="M1623.4 2653.75C1587.82 2689.06 1144 3004 1144 3004C1144 3004 1459.56 2561.06 1494.94 2525.55C1503.38 2517.13 1513.39 2510.46 1524.41 2505.9C1535.43 2501.34 1547.24 2499 1559.17 2499C1571.1 2499 1582.91 2501.34 1593.93 2505.9C1604.95 2510.46 1614.96 2517.13 1623.4 2525.55C1631.83 2533.97 1638.52 2543.96 1643.09 2554.96C1647.65 2565.96 1650 2577.75 1650 2589.65C1650 2601.56 1647.65 2613.34 1643.09 2624.34C1638.52 2635.34 1631.83 2645.33 1623.4 2653.75Z" fill="#EBE9FF"/>
<path d="M6720.55 9345.94C6756.06 9310.56 7199 8995 7199 8995C7199 8995 6884.06 9438.82 6848.75 9474.4C6831.75 9491.43 6808.69 9501 6784.65 9501C6760.61 9501 6737.55 9491.43 6720.55 9474.4C6703.55 9457.36 6694 9434.26 6694 9410.17C6694 9386.08 6703.55 9362.98 6720.55 9345.94Z" fill="white"/>
<path d="M674.551 3345.94C710.056 3310.56 1153 2995 1153 2995C1153 2995 838.064 3438.82 802.752 3474.4C785.751 3491.43 762.694 3501 738.652 3501C714.61 3501 691.552 3491.43 674.551 3474.4C657.551 3457.36 648 3434.26 648 3410.17C648 3386.08 657.551 3362.98 674.551 3345.94Z" fill="#EBE9FF"/>
<path d="M7540.94 9474.4C7505.56 9438.82 7190 8995 7190 8995C7190 8995 7633.82 9310.56 7669.4 9345.94C7686.43 9362.98 7696 9386.08 7696 9410.17C7696 9434.26 7686.43 9457.36 7669.4 9474.4C7652.36 9491.43 7629.26 9501 7605.17 9501C7581.08 9501 7557.98 9491.43 7540.94 9474.4Z" fill="white"/>
<path d="M1494.94 3474.4C1459.56 3438.82 1144 2995 1144 2995C1144 2995 1587.82 3310.56 1623.4 3345.94C1640.43 3362.98 1650 3386.08 1650 3410.17C1650 3434.26 1640.43 3457.36 1623.4 3474.4C1606.36 3491.43 1583.26 3501 1559.17 3501C1535.08 3501 1511.98 3491.43 1494.94 3474.4Z" fill="#EBE9FF"/>
<path d="M6848.75 8525.55C6884.06 8561.06 7199 9004 7199 9004C7199 9004 6756.06 8689.06 6720.55 8653.75C6712.13 8645.33 6705.46 8635.34 6700.9 8624.34C6696.34 8613.34 6694 8601.56 6694 8589.65C6694 8577.75 6696.34 8565.96 6700.9 8554.96C6705.46 8543.96 6712.13 8533.97 6720.55 8525.55C6728.97 8517.13 6738.96 8510.46 6749.96 8505.9C6760.96 8501.34 6772.75 8499 6784.65 8499C6796.56 8499 6808.34 8501.34 6819.34 8505.9C6830.34 8510.46 6840.33 8517.13 6848.75 8525.55Z" fill="white"/>
<path d="M802.752 2525.55C838.064 2561.06 1153 3004 1153 3004C1153 3004 710.056 2689.06 674.551 2653.75C666.134 2645.33 659.456 2635.34 654.901 2624.34C650.345 2613.34 648 2601.56 648 2589.65C648 2577.75 650.345 2565.96 654.901 2554.96C659.456 2543.96 666.134 2533.97 674.551 2525.55C682.969 2517.13 692.963 2510.46 703.961 2505.9C714.959 2501.34 726.748 2499 738.652 2499C750.557 2499 762.344 2501.34 773.342 2505.9C784.341 2510.46 794.334 2517.13 802.752 2525.55Z" fill="#EBE9FF"/>
<path d="M6382 6382H7193V7193C7086.52 7193.07 6981.08 7172.14 6882.68 7131.42C6784.29 7090.69 6694.88 7030.96 6619.57 6955.65C6544.25 6880.33 6484.51 6790.91 6443.74 6692.48C6402.98 6594.05 6382 6488.55 6382 6382Z" fill="#4A3AFF"/>
<path d="M2017 6384H2828V7195C2721.52 7195.07 2616.08 7174.14 2517.68 7133.42C2419.29 7092.69 2329.88 7032.96 2254.57 6957.65C2179.25 6882.33 2119.51 6792.91 2078.74 6694.48C2037.98 6596.05 2017 6490.55 2017 6384Z" fill="#4A3AFF"/>
<path d="M6382 7190H7193V8001C7086.52 8001.07 6981.08 7980.14 6882.68 7939.42C6784.29 7898.69 6694.88 7838.96 6619.57 7763.65C6544.25 7688.33 6484.51 7598.91 6443.74 7500.48C6402.98 7402.05 6382 7296.55 6382 7190Z" fill="#4A3AFF"/>
<path d="M2017 7192H2828V8003C2721.52 8003.07 2616.08 7982.14 2517.68 7941.42C2419.29 7900.69 2329.88 7840.96 2254.57 7765.65C2179.25 7690.33 2119.51 7600.91 2078.74 7502.48C2037.98 7404.05 2017 7298.55 2017 7192Z" fill="#4A3AFF"/>
<path d="M8004 8000C7789.11 8000.14 7582.96 7914.89 7430.88 7762.99C7278.79 7611.1 7193.23 7405 7193 7190H8004V8000Z" fill="#4A3AFF"/>
<path d="M3639 8002C3424.11 8002.14 3217.96 7916.89 3065.88 7764.99C2913.79 7613.1 2828.23 7407 2828 7192H3639V8002Z" fill="#4A3AFF"/>
<path d="M2016 8330L3679 9163H2016V8330Z" fill="#EBE9FF"/>
<path d="M2016 9163L3685 10000H2016V9163Z" fill="#EBE9FF"/>
<path d="M1018 5268L6 6000V4000H512.08L1018 5268Z" fill="#5E50FF"/>
<path d="M1005 7268.63L2017 8001V6000H1510.92L1005 7268.63Z" fill="white"/>
<path d="M2005 5268L1018 6000V4000H1524.54L2005 5268Z" fill="#5E50FF"/>
<path d="M18 7268.63L1005 8001V6000H498.461L18 7268.63Z" fill="white"/>
<path d="M6962.8 3584L4730.93 7961.42" stroke="white" stroke-width="10" stroke-miterlimit="10"/>
<path d="M6658.67 3588.93L4649.87 7882.08" stroke="white" stroke-width="10" stroke-miterlimit="10"/>
<path d="M6354.67 3594L4568.93 7802.88" stroke="white" stroke-width="10" stroke-miterlimit="10"/>
<path d="M6050.67 3599.07L4488 7723.54" stroke="white" stroke-width="10" stroke-miterlimit="10"/>
<path d="M5746.67 3604.13L4406.93 7644.34" stroke="white" stroke-width="10" stroke-miterlimit="10"/>
<path d="M5442.67 3609.2L4326 7565" stroke="white" stroke-width="10" stroke-miterlimit="10"/>
<path d="M5138.67 3614.13L4245.07 7485.79" stroke="white" stroke-width="10" stroke-miterlimit="10"/>
<path d="M4834.53 3619.2L4164 7406.46" stroke="white" stroke-width="10" stroke-miterlimit="10"/>
<path d="M4530.53 3624.27L4083.07 7327.26" stroke="white" stroke-width="10" stroke-miterlimit="10"/>
<path d="M4226.53 3629.34L4002 7247.92" stroke="white" stroke-width="10" stroke-miterlimit="10"/>
<path d="M2002 1093H1118V2000" stroke="white" stroke-width="10" stroke-miterlimit="10"/>
<path d="M2002 366H375V2000" stroke="white" stroke-width="10" stroke-miterlimit="10"/>
<path d="M5408.5 1860C5698.17 1860 5933 1625.17 5933 1335.5C5933 1045.83 5698.17 811 5408.5 811C5118.83 811 4884 1045.83 4884 1335.5C4884 1625.17 5118.83 1860 5408.5 1860Z" fill="#C3BDFF"/>
<path d="M6458 270H7289L6458 1101V270Z" stroke="white" stroke-width="10" stroke-miterlimit="10"/>
<path d="M6679 491H7510L6679 1322V491Z" stroke="white" stroke-width="10" stroke-miterlimit="10"/>
<path d="M6899 712H7731L6899 1543V712Z" stroke="white" stroke-width="10" stroke-miterlimit="10"/>
<path d="M8996.02 5990V8000" stroke="white" stroke-width="10" stroke-miterlimit="10"/>
<path d="M10001 6995H7991.07" stroke="white" stroke-width="10" stroke-miterlimit="10"/>
<path d="M9706.62 6284.37L8285.42 7705.63" stroke="white" stroke-width="10" stroke-miterlimit="10"/>
<path d="M9706.62 7705.63L8285.42 6284.37" stroke="white" stroke-width="10" stroke-miterlimit="10"/>
<path d="M9386.22 6068.9L8605.81 7921.11" stroke="white" stroke-width="10" stroke-miterlimit="10"/>
<path d="M9922.08 7385.22L8069.96 6604.78" stroke="white" stroke-width="10" stroke-miterlimit="10"/>
<path d="M9926.78 6616.02L8065.26 7373.98" stroke="white" stroke-width="10" stroke-miterlimit="10"/>
<path d="M9374.98 7925.81L8617.06 6064.2" stroke="white" stroke-width="10" stroke-miterlimit="10"/>
<path d="M9192.36 6009.38L8799.68 7980.63" stroke="white" stroke-width="10" stroke-miterlimit="10"/>
<path d="M9981.6 7191.35L8010.45 6798.65" stroke="white" stroke-width="10" stroke-miterlimit="10"/>
<path d="M9831.75 6436.95L8160.29 7553.05" stroke="white" stroke-width="10" stroke-miterlimit="10"/>
<path d="M9554.04 7830.78L8438 6159.23" stroke="white" stroke-width="10" stroke-miterlimit="10"/>
<path d="M9559.63 6162.97L8432.41 7827.03" stroke="white" stroke-width="10" stroke-miterlimit="10"/>
<path d="M9828 7558.64L8164.04 6431.36" stroke="white" stroke-width="10" stroke-miterlimit="10"/>
<path d="M9982.86 6805.26L8009.17 7184.74" stroke="white" stroke-width="10" stroke-miterlimit="10"/>
<path d="M9185.75 7981.89L8806.29 6008.1" stroke="white" stroke-width="10" stroke-miterlimit="10"/>
<path fill-rule="evenodd" clip-rule="evenodd" d="M9990 9003C9990 8455.2 9545.36 8011 8997 8011C8448.64 8011 8004 8455.2 8004 9003H9990Z" fill="#4A3AFF"/>
<path fill-rule="evenodd" clip-rule="evenodd" d="M9990 9997C9990 9448.09 9545.36 9003 8997 9003C8448.64 9003 8004 9448.09 8004 9997H9990Z" fill="#9A92FF"/>
</g>
<defs>
<filter id="filter0_d_1702_276" x="0" y="0" width="10008" height="10008" filterUnits="userSpaceOnUse" color-interpolation-filters="sRGB">
<feFlood flood-opacity="0" result="BackgroundImageFix"/>
<feColorMatrix in="SourceAlpha" type="matrix" values="0 0 0 0 0 0 0 0 0 0 0 0 0 0 0 0 0 0 127 0" result="hardAlpha"/>
<feOffset dy="4"/>
<feGaussianBlur stdDeviation="2"/>
<feComposite in2="hardAlpha" operator="out"/>
<feColorMatrix type="matrix" values="0 0 0 0 0 0 0 0 0 0 0 0 0 0 0 0 0 0 0.25 0"/>
<feBlend mode="normal" in2="BackgroundImageFix" result="effect1_dropShadow_1702_276"/>
<feBlend mode="normal" in="SourceGraphic" in2="effect1_dropShadow_1702_276" result="shape"/>
</filter>
<clipPath id="clip0_1702_276">
<rect width="10000" height="10000" fill="white" transform="translate(4)"/>
</clipPath>
</defs>
</svg>
