<svg width="10008" height="10008" viewBox="0 0 10008 10008" fill="none" xmlns="http://www.w3.org/2000/svg">
<g clip-path="url(#clip0_1702_269)" filter="url(#filter0_d_1702_269)">
<rect width="10000" height="10000" transform="translate(4)" fill="white"/>
<path d="M8851.56 7H8501V357.554H8851.56V7Z" fill="#4A3AFF"/>
<path d="M9190.72 357.446H8840.16V708.001H9190.72V357.446Z" fill="#4A3AFF"/>
<path d="M2710 3173V3596.25H3144.12V3173.22L2710 3173Z" fill="#EBE9FF"/>
<path d="M3144.11 3596.46H2351.05V4049.82H3144.11V3596.46Z" fill="#EBE9FF"/>
<path d="M3144.12 4043.36H1895V4496.72H3144.12V4043.36Z" fill="#EBE9FF"/>
<path d="M3578 0H-7V2802H3578V0Z" fill="#D7D3FF"/>
<rect x="5350" y="6386" width="4654" height="1018" fill="#EBE9FF"/>
<rect x="3557" y="7" width="4654" height="989" fill="#EBE9FF"/>
<path d="M5355.89 6407H3589V10008.9H5355.89V6407Z" fill="#D7D3FF"/>
<path d="M9130.89 2813H9110C8627.86 2813 8237 3203.86 8237 3686V6414.89H10003.9V3686C10003.9 3203.86 9613.04 2813 9130.89 2813Z" fill="#4A3AFF"/>
<path d="M3589.29 6401H4V9999.99H3589.29V6401Z" fill="#D7D3FF"/>
<path d="M7168 2802H3589V5128H7168V2802Z" fill="#4A3AFF"/>
<path d="M1071.6 8780.16H4V9075.77H1071.6V8780.16Z" fill="#4A3AFF"/>
<path d="M1344.41 9075.77H4V9371.26H1344.41V9075.77Z" fill="#4A3AFF"/>
<path d="M1599.05 9371.37H4V9687.84H1599.05V9371.37Z" fill="#4A3AFF"/>
<path d="M1922.41 9683.43H4V9999.9H1922.41V9683.43Z" fill="#4A3AFF"/>
<path d="M6323.6 3251.16H5256V3546.77H6323.6V3251.16Z" fill="#D7D3FF"/>
<path d="M6596.41 3546.77H5256V3842.26H6596.41V3546.77Z" fill="#D7D3FF"/>
<path d="M6851.05 3842.37H5256V4158.84H6851.05V3842.37Z" fill="#D7D3FF"/>
<path d="M7174.41 4154.43H5256V4470.9H7174.41V4154.43Z" fill="#D7D3FF"/>
<path d="M9188.6 1406H8121V1701.61H9188.6V1406Z" fill="#D7D3FF"/>
<path d="M9461.41 1701.61H8121V1997.1H9461.41V1701.61Z" fill="#D7D3FF"/>
<path d="M9716.05 1997.21H8121V2313.68H9716.05V1997.21Z" fill="#D7D3FF"/>
<path d="M10039.4 2309.27H8121V2625.74H10039.4V2309.27Z" fill="#D7D3FF"/>
<path d="M1071.6 0H4V295.605H1071.6V0Z" fill="#4A3AFF"/>
<path d="M1344.41 295.606H4V591.104H1344.41V295.606Z" fill="#4A3AFF"/>
<path d="M1599.05 591.211H4V907.678H1599.05V591.211Z" fill="#4A3AFF"/>
<path d="M1922.41 903.269H4V1219.74H1922.41V903.269Z" fill="#4A3AFF"/>
<path d="M674.906 8331H222.617V8783.28H674.906V8331Z" fill="#4A3AFF"/>
<path d="M5926.91 2802H5474.62V3254.28H5926.91V2802Z" fill="#D7D3FF"/>
<path d="M9425.07 0C9425.07 0 9425.07 1134.14 9425.07 1158.01" stroke="#9A92FF" stroke-width="3.5328" stroke-miterlimit="10"/>
<path d="M10004 578.952C10004 578.952 8869.87 578.952 8846 578.952" stroke="#9A92FF" stroke-width="3.5328" stroke-miterlimit="10"/>
<path d="M9834.45 169.578C9834.45 169.578 9032.46 971.552 9015.58 988.435" stroke="#9A92FF" stroke-width="3.5328" stroke-miterlimit="10"/>
<path d="M9834.45 988.327C9834.45 988.327 9032.46 186.353 9015.58 169.47" stroke="#9A92FF" stroke-width="3.5328" stroke-miterlimit="10"/>
<path d="M9966.08 372.706C9966.08 372.706 8906.33 776.596 8883.96 785.091" stroke="#9A92FF" stroke-width="3.5328" stroke-miterlimit="10"/>
<path d="M9631.32 1119.95C9631.32 1119.95 9227.42 60.218 9218.93 37.8513" stroke="#9A92FF" stroke-width="3.5328" stroke-miterlimit="10"/>
<path d="M9953.5 815.738C9953.5 815.738 8918.48 351.952 8896.76 342.274" stroke="#9A92FF" stroke-width="3.5328" stroke-miterlimit="10"/>
<path d="M9188.28 1107.37C9188.28 1107.37 9652.08 72.3691 9661.75 50.6476" stroke="#9A92FF" stroke-width="3.5328" stroke-miterlimit="10"/>
<path d="M3250.01 7056.73V6740.16H2978.71V6401H2549V8097.1H2820.42V8119.68H3159.58H3250.01H3589.28V7056.73H3250.01Z" fill="white"/>
<path d="M3250.12 6401H2899.56V6751.55H3250.12V6401Z" fill="#4A3AFF"/>
<path d="M9664.56 7513H9314V7863.55H9664.56V7513Z" fill="#4A3AFF"/>
<path d="M6319.56 6576H5969V6926.55H6319.56V6576Z" fill="#4A3AFF"/>
<path d="M6478.56 7961H6128V8311.55H6478.56V7961Z" fill="#4A3AFF"/>
<path d="M1897.56 4149H1547V4499.55H1897.56V4149Z" fill="#4A3AFF"/>
<path d="M2411.56 1362H2061V1712.55H2411.56V1362Z" fill="#4A3AFF"/>
<path d="M5085.56 1427H4735V1777.55H5085.56V1427Z" fill="#4A3AFF"/>
<path d="M8820.56 1686H8470V2036.55H8820.56V1686Z" fill="#4A3AFF"/>
<path d="M3928.56 0H3578V350.554H3928.56V0Z" fill="#4A3AFF"/>
<path d="M3589.28 6751.45H3238.72V7102H3589.28V6751.45Z" fill="#4A3AFF"/>
<path d="M10003.7 7863.45H9653.16V8214H10003.7V7863.45Z" fill="#4A3AFF"/>
<path d="M6658.72 6926.45H6308.16V7277H6658.72V6926.45Z" fill="#4A3AFF"/>
<path d="M6817.72 8311.45H6467.16V8662H6817.72V8311.45Z" fill="#4A3AFF"/>
<path d="M2236.72 4499.45H1886.16V4850H2236.72V4499.45Z" fill="#4A3AFF"/>
<path d="M2750.72 1712.45H2400.16V2063H2750.72V1712.45Z" fill="#4A3AFF"/>
<path d="M5424.72 1777.45H5074.16V2128H5424.72V1777.45Z" fill="#4A3AFF"/>
<path d="M9159.72 2036.45H8809.16V2387H9159.72V2036.45Z" fill="#4A3AFF"/>
<path d="M4267.72 350.446H3917.16V701.001H4267.72V350.446Z" fill="#4A3AFF"/>
<path d="M2549.24 10000.4V7974.75C2549.24 7649.25 2287.07 7383 1966.62 7383C1646.17 7383 1384 7649.25 1384 7974.75V10000.4H2549.24Z" fill="#EBE9FF"/>
<path d="M1397.96 4146.81V3921.21C1397.96 3579.48 1118.38 3300 776.74 3300C434.997 3300 155.516 3579.58 155.516 3921.21V4146.81H4V6400.79H1549.37V4146.81H1397.96Z" fill="#4A3AFF"/>
<path d="M1397.96 4146.81V3921.21C1397.96 3580.77 1120.42 3302.15 780.504 3300V6400.69H1549.48V4146.81H1397.96Z" fill="#D7D3FF"/>
<path d="M4707.39 10008.8C4611.47 9478.38 4147.35 9076 3589.25 9076C3031.15 9076 2566.92 9478.38 2471 10008.8H4707.39Z" fill="#EBE9FF"/>
<path d="M8121 2635C8080.38 2409.82 7883.85 2239 7647.52 2239C7411.19 2239 7214.62 2409.82 7174 2635H8121Z" fill="#EBE9FF"/>
<path d="M10004 6430C9928.9 6014.89 9565.51 5700 9128.54 5700C8691.57 5700 8328.1 6014.89 8253 6430H10004Z" fill="#EBE9FF"/>
<path d="M3578 351C3162.89 426.102 2848 789.487 2848 1226.46C2848 1663.43 3162.89 2026.9 3578 2102V351Z" fill="#4A3AFF"/>
<path d="M9120.39 9023.84C9024.47 8493.38 8560.35 8091 8002.25 8091C7444.15 8091 6979.92 8493.38 6884 9023.84H9120.39Z" fill="#EBE9FF"/>
<path d="M3589.14 9076C3031.04 9076 2566.92 9478.38 2471 10008.8H3589.14V9076Z" fill="#C3BDFF"/>
<path d="M7647 2239C7410.91 2239 7214.58 2409.82 7174 2635H7647V2239Z" fill="#C3BDFF"/>
<path d="M2596 5445C2359.91 5445 2163.58 5615.82 2123 5841H2596V5445Z" fill="#C3BDFF"/>
<path d="M4943 2449C4734.86 2449 4561.77 2599.97 4526 2799H4943V2449Z" fill="#C3BDFF"/>
<path d="M6127.02 7801.97H5354.28V8556.74H6127.02V7801.97Z" fill="#EBE9FF"/>
<path d="M5925.28 7717.02C5925.28 7745.84 5923.45 7774.12 5920.01 7801.97H5349.65V8378.02C5319.76 8382.11 5289.11 8384.26 5258.14 8384.26C4889.73 8384.26 4591 8085.53 4591 7717.13C4591 7348.72 4889.73 7050 5258.14 7050C5626.55 7049.89 5925.28 7348.72 5925.28 7717.02Z" fill="#C3BDFF"/>
<path d="M4162.28 4777.02C4162.28 4805.84 4160.45 4834.12 4157.01 4861.97H3586.65V5438.02C3556.76 5442.11 3526.11 5444.26 3495.14 5444.26C3126.73 5444.26 2828 5145.53 2828 4777.13C2828 4408.72 3126.73 4110 3495.14 4110C3863.55 4109.89 4162.28 4408.72 4162.28 4777.02Z" fill="#C3BDFF"/>
<path d="M6794.28 1114.02C6794.28 1142.84 6792.45 1171.12 6789.01 1198.97H6218.65V1775.02C6188.76 1779.11 6158.11 1781.26 6127.14 1781.26C5758.73 1781.26 5460 1482.53 5460 1114.13C5460 745.724 5758.73 447 6127.14 447C6495.55 446.892 6794.28 745.724 6794.28 1114.02Z" fill="#C3BDFF"/>
<path d="M5920.01 7801.97C5882.05 8100.27 5647.09 8337.16 5349.65 8378.02V7801.97H5920.01Z" fill="#4A3AFF"/>
<path d="M4157.01 4861.97C4119.05 5160.27 3884.09 5397.16 3586.65 5438.02V4861.97H4157.01Z" fill="#4A3AFF"/>
<path d="M3589 5510.4L4493.58 6406.68" stroke="white" stroke-width="2.233" stroke-miterlimit="10"/>
<path d="M8412 7303.4L9316.58 8199.68" stroke="#4A3AFF" stroke-width="2.233" stroke-miterlimit="10"/>
<path d="M4351 3367.4L5255.58 4263.68" stroke="white" stroke-width="2.233" stroke-miterlimit="10"/>
<path d="M8736 4765.4L9640.58 5661.68" stroke="white" stroke-width="2.233" stroke-miterlimit="10"/>
<path d="M-3 1803.4L901.577 2699.68" stroke="#4A3AFF" stroke-width="2.233" stroke-miterlimit="10"/>
<path d="M2021 597.403L2925.58 1493.68" stroke="#4A3AFF" stroke-width="2.233" stroke-miterlimit="10"/>
<path d="M3589 5322.01L4493.58 6218.18" stroke="white" stroke-width="2.233" stroke-miterlimit="10"/>
<path d="M8412 7115.01L9316.58 8011.18" stroke="#4A3AFF" stroke-width="2.233" stroke-miterlimit="10"/>
<path d="M4351 3179.01L5255.58 4075.18" stroke="white" stroke-width="2.233" stroke-miterlimit="10"/>
<path d="M8736 4577.01L9640.58 5473.18" stroke="white" stroke-width="2.233" stroke-miterlimit="10"/>
<path d="M-3 1615.01L901.577 2511.18" stroke="#4A3AFF" stroke-width="2.233" stroke-miterlimit="10"/>
<path d="M2021 409.007L2925.58 1305.18" stroke="#4A3AFF" stroke-width="2.233" stroke-miterlimit="10"/>
<path d="M3589 5133.5L4493.58 6029.68" stroke="white" stroke-width="2.233" stroke-miterlimit="10"/>
<path d="M8412 6926.5L9316.58 7822.68" stroke="#4A3AFF" stroke-width="2.233" stroke-miterlimit="10"/>
<path d="M4351 2990.5L5255.58 3886.68" stroke="white" stroke-width="2.233" stroke-miterlimit="10"/>
<path d="M8736 4388.5L9640.58 5284.68" stroke="white" stroke-width="2.233" stroke-miterlimit="10"/>
<path d="M-3 1426.5L901.577 2322.68" stroke="#4A3AFF" stroke-width="2.233" stroke-miterlimit="10"/>
<path d="M2021 220.503L2925.58 1116.68" stroke="#4A3AFF" stroke-width="2.233" stroke-miterlimit="10"/>
<path d="M3589 4945L4493.58 5841.28" stroke="white" stroke-width="2.233" stroke-miterlimit="10"/>
<path d="M8412 6738L9316.58 7634.28" stroke="#4A3AFF" stroke-width="2.233" stroke-miterlimit="10"/>
<path d="M4351 2802L5255.58 3698.28" stroke="white" stroke-width="2.233" stroke-miterlimit="10"/>
<path d="M8736 4200L9640.58 5096.28" stroke="white" stroke-width="2.233" stroke-miterlimit="10"/>
<path d="M-3 1238L901.577 2134.28" stroke="#4A3AFF" stroke-width="2.233" stroke-miterlimit="10"/>
<path d="M2021 32L2925.58 928.28" stroke="#4A3AFF" stroke-width="2.233" stroke-miterlimit="10"/>
<path d="M449.271 7294.53C555.459 7294.53 641.542 7208.45 641.542 7102.27C641.542 6996.08 555.459 6910 449.271 6910C343.082 6910 257 6996.08 257 7102.27C257 7208.45 343.082 7294.53 449.271 7294.53Z" fill="white"/>
<path d="M449.271 6910C445.508 6910 441.744 6910.32 437.98 6910.54V7293.89C441.744 7294.1 445.508 7294.43 449.271 7294.43C555.408 7294.43 641.542 7208.4 641.542 7102.16C641.435 6996.13 555.408 6910 449.271 6910Z" fill="#D7D3FF"/>
<path d="M6611.27 5054.53C6717.46 5054.53 6803.54 4968.45 6803.54 4862.27C6803.54 4756.08 6717.46 4670 6611.27 4670C6505.08 4670 6419 4756.08 6419 4862.27C6419 4968.45 6505.08 5054.53 6611.27 5054.53Z" fill="white"/>
<path d="M6611.27 4670C6607.51 4670 6603.74 4670.32 6599.98 4670.54V5053.89C6603.74 5054.1 6607.51 5054.43 6611.27 5054.43C6717.41 5054.43 6803.54 4968.4 6803.54 4862.16C6803.43 4756.13 6717.41 4670 6611.27 4670Z" fill="#D7D3FF"/>
<path d="M769.272 4323.53C663.084 4323.53 577.001 4237.45 577.001 4131.27C577.001 4025.08 663.084 3939 769.272 3939C875.461 3939 961.543 4025.08 961.543 4131.27C961.543 4237.45 875.461 4323.53 769.272 4323.53Z" fill="white"/>
<path d="M769.272 3939C773.035 3939 776.799 3939.32 780.562 3939.54V4322.89C776.799 4323.1 773.035 4323.43 769.272 4323.43C663.135 4323.43 577.001 4237.4 577.001 4131.16C577.108 4025.13 663.135 3939 769.272 3939Z" fill="#D7D3FF"/>
<path d="M7870.27 4200.53C7976.46 4200.53 8062.54 4114.45 8062.54 4008.27C8062.54 3902.08 7976.46 3816 7870.27 3816C7764.08 3816 7678 3902.08 7678 4008.27C7678 4114.45 7764.08 4200.53 7870.27 4200.53Z" fill="#EBE9FF"/>
<path d="M7870.27 3816C7866.51 3816 7862.74 3816.32 7858.98 3816.54V4199.89C7862.74 4200.1 7866.51 4200.43 7870.27 4200.43C7976.41 4200.43 8062.54 4114.4 8062.54 4008.16C8062.43 3902.13 7976.41 3816 7870.27 3816Z" fill="#4A3AFF"/>
<path d="M9120.27 3684.53C9226.46 3684.53 9312.54 3598.45 9312.54 3492.27C9312.54 3386.08 9226.46 3300 9120.27 3300C9014.08 3300 8928 3386.08 8928 3492.27C8928 3598.45 9014.08 3684.53 9120.27 3684.53Z" fill="white"/>
<path d="M9120.27 3300C9116.51 3300 9112.74 3300.32 9108.98 3300.54V3683.89C9112.74 3684.1 9116.51 3684.43 9120.27 3684.43C9226.41 3684.43 9312.54 3598.4 9312.54 3492.16C9312.43 3386.13 9226.41 3300 9120.27 3300Z" fill="#D7D3FF"/>
<path d="M1549.07 6962C1549.07 6962 1549.07 8096.14 1549.07 8120.01" stroke="#9A92FF" stroke-width="3.5328" stroke-miterlimit="10"/>
<path d="M2128.03 7540.95C2128.03 7540.95 993.873 7540.95 970 7540.95" stroke="#9A92FF" stroke-width="3.5328" stroke-miterlimit="10"/>
<path d="M1958.45 7131.58C1958.45 7131.58 1156.46 7933.55 1139.58 7950.43" stroke="#9A92FF" stroke-width="3.5328" stroke-miterlimit="10"/>
<path d="M1958.45 7950.33C1958.45 7950.33 1156.46 7148.35 1139.58 7131.47" stroke="#9A92FF" stroke-width="3.5328" stroke-miterlimit="10"/>
<path d="M2090.08 7334.71C2090.08 7334.71 1030.33 7738.6 1007.96 7747.09" stroke="#9A92FF" stroke-width="3.5328" stroke-miterlimit="10"/>
<path d="M1755.32 8081.95C1755.32 8081.95 1351.42 7022.22 1342.93 6999.85" stroke="#9A92FF" stroke-width="3.5328" stroke-miterlimit="10"/>
<path d="M2077.5 7777.74C2077.5 7777.74 1042.48 7313.95 1020.76 7304.27" stroke="#9A92FF" stroke-width="3.5328" stroke-miterlimit="10"/>
<path d="M1312.28 8069.36C1312.28 8069.36 1776.08 7034.37 1785.75 7012.65" stroke="#9A92FF" stroke-width="3.5328" stroke-miterlimit="10"/>
<path d="M4207.65 8082.06C4207.65 8423.68 3930.7 8700.62 3589.07 8700.62C3247.44 8700.62 2970.5 8423.68 2970.5 8082.06C2970.5 7740.44 3247.44 7463.5 3589.07 7463.5C3930.7 7463.5 4207.65 7740.44 4207.65 8082.06Z" fill="#4A3AFF" stroke="white"/>
<path d="M3589.07 8542.08C3843.14 8542.08 4049.1 8336.13 4049.1 8082.06C4049.1 7828 3843.14 7622.04 3589.07 7622.04C3335.01 7622.04 3129.04 7828 3129.04 8082.06C3129.04 8336.13 3335.01 8542.08 3589.07 8542.08Z" fill="#4A3AFF" stroke="white" stroke-width="2.233" stroke-miterlimit="10"/>
<path d="M3872.58 8126.49C3897.18 7970.02 3790.27 7823.23 3633.8 7798.63C3477.32 7774.03 3330.54 7880.94 3305.94 8037.41C3281.34 8193.88 3388.25 8340.67 3544.72 8365.27C3701.2 8389.87 3847.99 8282.96 3872.58 8126.49Z" fill="#4A3AFF" stroke="white" stroke-width="2.233" stroke-miterlimit="10"/>
<path d="M3685.65 8178.75C3739.03 8125.37 3739.03 8038.84 3685.65 7985.46C3632.28 7932.09 3545.74 7932.09 3492.37 7985.46C3438.99 8038.84 3438.99 8125.37 3492.37 8178.75C3545.74 8232.12 3632.28 8232.12 3685.65 8178.75Z" fill="#4A3AFF" stroke="white" stroke-width="2.233" stroke-miterlimit="10"/>
<path d="M8411.65 619.062C8411.65 960.684 8134.7 1237.62 7793.07 1237.62C7451.44 1237.62 7174.5 960.684 7174.5 619.062C7174.5 277.44 7451.44 0.5 7793.07 0.5C8134.7 0.5 8411.65 277.44 8411.65 619.062Z" fill="#4A3AFF" stroke="white"/>
<path d="M7793.07 1079.08C8047.14 1079.08 8253.1 873.125 8253.1 619.062C8253.1 364.999 8047.14 159.04 7793.07 159.04C7539.01 159.04 7333.04 364.999 7333.04 619.062C7333.04 873.125 7539.01 1079.08 7793.07 1079.08Z" fill="#4A3AFF" stroke="white" stroke-width="2.233" stroke-miterlimit="10"/>
<path d="M8076.58 663.488C8101.18 507.016 7994.27 360.23 7837.8 335.632C7681.32 311.035 7534.54 417.94 7509.94 574.412C7485.34 730.884 7592.25 877.67 7748.72 902.268C7905.2 926.865 8051.99 819.96 8076.58 663.488Z" fill="#4A3AFF" stroke="white" stroke-width="2.233" stroke-miterlimit="10"/>
<path d="M7889.65 715.747C7943.03 662.374 7943.03 575.837 7889.65 522.464C7836.28 469.09 7749.74 469.09 7696.37 522.464C7642.99 575.838 7642.99 662.373 7696.37 715.747C7749.74 769.121 7836.28 769.121 7889.65 715.747Z" fill="#4A3AFF" stroke="white" stroke-width="2.233" stroke-miterlimit="10"/>
<path d="M2373.65 2802.06C2373.65 3143.68 2096.7 3420.62 1755.07 3420.62C1413.44 3420.62 1136.5 3143.68 1136.5 2802.06C1136.5 2460.44 1413.44 2183.5 1755.07 2183.5C2096.7 2183.5 2373.65 2460.44 2373.65 2802.06Z" fill="#4A3AFF" stroke="white"/>
<path d="M1755.07 3262.08C2009.14 3262.08 2215.1 3056.13 2215.1 2802.06C2215.1 2548 2009.14 2342.04 1755.07 2342.04C1501.01 2342.04 1295.04 2548 1295.04 2802.06C1295.04 3056.13 1501.01 3262.08 1755.07 3262.08Z" fill="#4A3AFF" stroke="white" stroke-width="2.233" stroke-miterlimit="10"/>
<path d="M2038.58 2846.49C2063.18 2690.02 1956.27 2543.23 1799.8 2518.63C1643.32 2494.03 1496.54 2600.94 1471.94 2757.41C1447.34 2913.88 1554.25 3060.67 1710.72 3085.27C1867.2 3109.87 2013.99 3002.96 2038.58 2846.49Z" fill="#4A3AFF" stroke="white" stroke-width="2.233" stroke-miterlimit="10"/>
<path d="M1851.65 2898.75C1905.03 2845.37 1905.03 2758.84 1851.65 2705.46C1798.28 2652.09 1711.74 2652.09 1658.37 2705.46C1604.99 2758.84 1604.99 2845.37 1658.37 2898.75C1711.74 2952.12 1798.28 2952.12 1851.65 2898.75Z" fill="#4A3AFF" stroke="white" stroke-width="2.233" stroke-miterlimit="10"/>
<path d="M7174.44 6386.23L6462.13 5673.83H7174.44V6386.23Z" fill="#EBE9FF"/>
<path d="M8121.31 3347.4L7409 2635H8121.31V3347.4Z" fill="#EBE9FF"/>
<path d="M4472.31 2139.4L3760 1427H4472.31V2139.4Z" fill="#EBE9FF"/>
<path d="M1562.31 1932.4L850 1220H1562.31V1932.4Z" fill="#EBE9FF"/>
<path d="M3588.5 2533.56L3754.01 2292L3745.91 2584.8L4021.76 2486.69L3843.11 2718.83L4124 2801.61L3843.11 2884.17L4021.76 3116.31L3745.91 3018.2L3754.01 3311L3588.5 3069.44L3422.99 3311L3431.09 3018.2L3155.24 3116.31L3333.89 2884.17L3053 2801.61L3333.89 2718.83L3155.24 2486.69L3431.09 2584.8L3422.99 2292L3588.5 2533.56Z" fill="#AFA7FF"/>
<path d="M7808.5 7135.56L7974.01 6894L7965.91 7186.8L8241.76 7088.69L8063.11 7320.83L8344 7403.61L8063.11 7486.17L8241.76 7718.31L7965.91 7620.2L7974.01 7913L7808.5 7671.44L7642.99 7913L7651.09 7620.2L7375.24 7718.31L7553.89 7486.17L7273 7403.61L7553.89 7320.83L7375.24 7088.69L7651.09 7186.8L7642.99 6894L7808.5 7135.56Z" fill="#4A3AFF"/>
<rect x="5356" y="9011" width="2886" height="989" fill="#EBE9FF"/>
<path d="M5475.08 5586C5925.08 5586 6290 5950.96 6290 6401H4660C4660 5950.96 5024.92 5586 5475.08 5586Z" fill="#D7D3FF"/>
<path d="M7168 2114H5425V2456H7168V2114Z" fill="#D7D3FF"/>
<path d="M7576 9312H5833V9654H7576V9312Z" fill="#D7D3FF"/>
<path d="M7169 1779H5846V2121H7169V1779Z" fill="#4A3AFF"/>
<path d="M7577 8977H6254V9319H7577V8977Z" fill="#4A3AFF"/>
<path d="M7169 1467H6203V1781H7169V1467Z" fill="#D7D3FF"/>
<path d="M7577 8665H6611V8979H7577V8665Z" fill="#D7D3FF"/>
<path d="M7168 2449H4939V2802H7168V2449Z" fill="#4A3AFF"/>
<path d="M7576 9647H5347V10000H7576V9647Z" fill="#4A3AFF"/>
<path d="M7503.05 3384H7174V6415.33H7503.05V3384Z" fill="#D7D3FF"/>
<path d="M7503.05 3384H7174V5580.56H7503.05V3384Z" fill="#EBE9FF"/>
<path d="M7503 4184H7168V5674H7503V4184Z" fill="#4A3AFF"/>
<path d="M8236 5711H7503V6423H8236V5711Z" fill="#D7D3FF"/>
<path d="M8236 6423L7503 5711H8236V6423Z" fill="white"/>
<path d="M8253 4950H7503V5674H8253V4950Z" fill="#4A3AFF"/>
<path d="M7870 5485C7971.07 5485 8053 5405.08 8053 5306.5C8053 5207.92 7971.07 5128 7870 5128C7768.93 5128 7687 5207.92 7687 5306.5C7687 5405.08 7768.93 5485 7870 5485Z" fill="#EBE9FF"/>
<path d="M2562.56 5840H1948V6064.96H2562.56V5840Z" fill="#4A3AFF"/>
<path d="M3075 6401V5846.58C3075 5798.46 3035.58 5759 2987.5 5759C2939.42 5759 2900 5798.46 2900 5846.58V6401H3075Z" fill="#4A3AFF"/>
<path d="M2123 5841V5286.58C2123 5238.46 2083.58 5199 2035.5 5199C1987.42 5199 1948 5238.46 1948 5286.58V5841H2123Z" fill="#4A3AFF"/>
<path d="M5336 992V437.576C5336 389.459 5296.58 350 5248.5 350C5200.42 350 5161 389.459 5161 437.576V992H5336Z" fill="#4A3AFF"/>
<path d="M9891 2309V1754.58C9891 1706.46 9851.58 1667 9803.5 1667C9755.42 1667 9716 1706.46 9716 1754.58V2309H9891Z" fill="#4A3AFF"/>
<path d="M9759.84 8191L9509.18 8440.47H8242V8191H9759.84Z" fill="#4A3AFF"/>
<path d="M9235.94 8712.53L8985.38 8962H8242V8712.53H9235.94Z" fill="#4A3AFF"/>
<path d="M8689.23 9256.86L8438.57 9506.22H8242V9256.86H8689.23Z" fill="#4A3AFF"/>
<path d="M10003.7 9010.95H8212V9260.43H10003.7V9010.95Z" fill="#EBE9FF"/>
<path d="M10003.7 9555.28H8212V9804.75H10003.7V9555.28Z" fill="#EBE9FF"/>
</g>
<defs>
<filter id="filter0_d_1702_269" x="0" y="0" width="10008" height="10008" filterUnits="userSpaceOnUse" color-interpolation-filters="sRGB">
<feFlood flood-opacity="0" result="BackgroundImageFix"/>
<feColorMatrix in="SourceAlpha" type="matrix" values="0 0 0 0 0 0 0 0 0 0 0 0 0 0 0 0 0 0 127 0" result="hardAlpha"/>
<feOffset dy="4"/>
<feGaussianBlur stdDeviation="2"/>
<feComposite in2="hardAlpha" operator="out"/>
<feColorMatrix type="matrix" values="0 0 0 0 0 0 0 0 0 0 0 0 0 0 0 0 0 0 0.25 0"/>
<feBlend mode="normal" in2="BackgroundImageFix" result="effect1_dropShadow_1702_269"/>
<feBlend mode="normal" in="SourceGraphic" in2="effect1_dropShadow_1702_269" result="shape"/>
</filter>
<clipPath id="clip0_1702_269">
<rect width="10000" height="10000" fill="white" transform="translate(4)"/>
</clipPath>
</defs>
</svg>
