<svg width="10008" height="10008" viewBox="0 0 10008 10008" fill="none" xmlns="http://www.w3.org/2000/svg">
<g clip-path="url(#clip0_1702_275)" filter="url(#filter0_d_1702_275)">
<rect width="10000" height="10000" transform="translate(4)" fill="white"/>
<path d="M3337 0H4V5000H3337V0Z" fill="#EBE9FF"/>
<path d="M1958 5000H4V10000H3337V6379C3337 5617.4 2719.6 5000 1958 5000Z" fill="#D7D3FF"/>
<path d="M6671 0H3337V5000H6671V0Z" fill="#D7D3FF"/>
<path d="M795.595 796.014C795.595 796.014 814.389 1179.26 596.015 1395.45C377.641 1611.63 4.43582 1592.57 4.43582 1592.57C4.43582 1592.57 -14.87 1222.88 203.504 1006.57C421.75 790.385 795.595 796.014 795.595 796.014Z" fill="#4A3AFF"/>
<path d="M4.40526 0.0137711C4.40526 0.0137711 -14.3864 382.778 203.952 598.69C422.291 814.729 795.564 795.565 795.564 795.565C795.564 795.565 814.867 426.343 596.528 210.304C378.189 -5.6077 4.40526 0.0137711 4.40526 0.0137711Z" fill="#4A3AFF"/>
<path d="M796.405 796.014C796.405 796.014 777.637 1179.26 995.7 1395.44C1213.76 1611.75 1586.56 1592.56 1586.56 1592.56C1586.56 1592.56 1605.84 1222.88 1387.78 1006.57C1169.72 790.385 796.405 796.014 796.405 796.014Z" fill="#4A3AFF"/>
<path d="M1586.6 0.0137711C1586.6 0.0137711 1605.36 382.778 1387.3 598.69C1169.24 814.729 796.435 795.565 796.435 795.565C796.435 795.565 777.157 426.343 995.22 210.304C1213.28 -5.6077 1586.6 0.0137711 1586.6 0.0137711Z" fill="#4A3AFF"/>
<path d="M6671 5000H4579C3893.06 5000 3337 5556.06 3337 6242V10000H6671V5000Z" fill="#EBE9FF"/>
<path d="M10004 0H6671V5000H10004V0Z" fill="#EBE9FF"/>
<path d="M6671 2124H8108V3561C7919.33 3561.12 7732.49 3524.04 7558.15 3451.88C7383.81 3379.72 7225.39 3273.89 7091.94 3140.44C6958.49 3006.99 6852.63 2848.54 6780.4 2674.13C6708.18 2499.73 6671 2312.79 6671 2124Z" fill="#4A3AFF"/>
<path d="M2888 7124H1451V8561C1639.67 8561.12 1826.51 8524.04 2000.85 8451.88C2175.19 8379.72 2333.61 8273.89 2467.06 8140.44C2600.51 8006.99 2706.37 7848.54 2778.6 7674.13C2850.82 7499.73 2888 7312.79 2888 7124Z" fill="#EBE9FF"/>
<path d="M6671 3556H8108V4993C7919.33 4993.12 7732.49 4956.04 7558.15 4883.88C7383.81 4811.72 7225.39 4705.89 7091.94 4572.44C6958.49 4438.99 6852.63 4280.54 6780.4 4106.13C6708.18 3931.72 6671 3744.79 6671 3556Z" fill="#4A3AFF"/>
<path d="M2888 8556H1451V9993C1639.67 9993.12 1826.51 9956.04 2000.85 9883.88C2175.19 9811.72 2333.61 9705.89 2467.06 9572.44C2600.51 9438.99 2706.37 9280.54 2778.6 9106.13C2850.82 8931.72 2888 8744.79 2888 8556Z" fill="#4A3AFF"/>
<path d="M9545 4991C9164.24 4991.25 8798.96 4840.22 8529.49 4571.12C8260.02 4302.02 8108.41 3936.89 8108 3556H9545V4991Z" fill="#4A3AFF"/>
<path d="M14 9991C394.763 9991.25 760.038 9840.22 1029.51 9571.12C1298.98 9302.02 1450.59 8936.89 1451 8556H14V9991Z" fill="#EBE9FF"/>
<path d="M10004 5000H8315C7407.04 5000 6671 5736.04 6671 6644V10000H10004V5000Z" fill="#D7D3FF"/>
<path d="M6671 3750H4V5000H6671V3750Z" fill="white"/>
<path d="M10005 8966H6671V10000H10005V8966Z" fill="white"/>
<path d="M1144 1593H4V3750H2160V2609C2160 2047.88 1705.12 1593 1144 1593Z" fill="#D7D3FF"/>
<path d="M2955.21 1494.16L3337.08 1494.14L3337 0.000366211L1939.13 0.0752541L1939.16 478.216C1939.19 1039.34 2394.09 1494.19 2955.21 1494.16Z" fill="#C3BDFF"/>
<path d="M1460.57 1593H1450.62V3758.84H1460.57V1593Z" fill="#4A3AFF"/>
<path d="M1779.9 1593H1769.94V3758.84H1779.9V1593Z" fill="#4A3AFF"/>
<path d="M2099.22 1593H2089.27V3758.84H2099.22V1593Z" fill="#4A3AFF"/>
<path d="M2418.55 1593H2408.59V3758.84H2418.55V1593Z" fill="#4A3AFF"/>
<path d="M2737.72 1593H2727.77V3758.84H2737.72V1593Z" fill="#4A3AFF"/>
<path d="M3057.04 1593H3047.09V3758.84H3057.04V1593Z" fill="#4A3AFF"/>
<path d="M3336.84 1872.77H1171V1882.73H3336.84V1872.77Z" fill="#4A3AFF"/>
<path d="M3336.84 2192.08H1171V2202.04H3336.84V2192.08Z" fill="#4A3AFF"/>
<path d="M3336.84 2511.26H1171V2521.21H3336.84V2511.26Z" fill="#4A3AFF"/>
<path d="M3336.84 2830.62H1171V2840.57H3336.84V2830.62Z" fill="#4A3AFF"/>
<path d="M3336.84 3149.9H1171V3159.86H3336.84V3149.9Z" fill="#4A3AFF"/>
<path d="M3336.84 3469.27H1171V3479.22H3336.84V3469.27Z" fill="#4A3AFF"/>
<path d="M9584.93 10000L9737.5 9847.55L9889.99 10000H9930.75L9737.5 9806.78L9544.25 10000H9584.93Z" fill="#4A3AFF"/>
<path d="M9471 9829.06V9869.82L9737.49 9603.33L10004 9869.82V9829.06L9737.49 9562.64L9471 9829.06Z" fill="#4A3AFF"/>
<path d="M9471 9951.21V9991.89L9737.49 9725.4L10004 9991.89V9951.21L9737.49 9684.71L9471 9951.21Z" fill="#4A3AFF"/>
<path d="M9479.44 8966L9471 8974.52V9015.21L9520.21 8966H9479.44Z" fill="#4A3AFF"/>
<path d="M9601.58 8966L9471 9096.58V9137.27L9642.27 8966H9601.58Z" fill="#4A3AFF"/>
<path d="M9706.99 10000L9737.49 9969.62L9767.91 10000H9808.68L9737.49 9928.85L9666.3 10000H9706.99Z" fill="#4A3AFF"/>
<path d="M9723.65 8966L9471 9218.65V9259.42L9737.49 8992.92L10004 9259.42V9218.65L9751.34 8966H9723.65Z" fill="#4A3AFF"/>
<path d="M9832.64 8966L10004 9137.27V9096.58L9873.41 8966H9832.64Z" fill="#4A3AFF"/>
<path d="M9954.78 8966L10004 9015.21V8974.52L9995.46 8966H9954.78Z" fill="#4A3AFF"/>
<path d="M9471 9584.93V9625.62L9737.49 9359.2L10004 9625.62V9584.93L9737.49 9318.43L9471 9584.93Z" fill="#4A3AFF"/>
<path d="M9471 9707V9747.77L9737.49 9481.27L10004 9747.77V9707L9737.49 9440.51L9471 9707Z" fill="#4A3AFF"/>
<path d="M9471 9340.7V9381.47L9737.49 9114.98L10004 9381.47V9340.7L9737.49 9074.29L9471 9340.7Z" fill="#4A3AFF"/>
<path d="M9471 9462.85V9503.54L9737.49 9237.05L10004 9503.54V9462.85L9737.49 9196.36L9471 9462.85Z" fill="#4A3AFF"/>
<path d="M3739.11 2761.68L3616.41 2568.87L3494 2761.68H3739.11Z" fill="#4A3AFF"/>
<path d="M3739.11 3759L3616.41 3566.18L3494 3759H3739.11Z" fill="#4A3AFF"/>
<path d="M3739.11 415.101L3616.41 222L3494 415.101H3739.11Z" fill="#4A3AFF"/>
<path d="M3739.11 1412.53L3616.41 1219.43L3494 1412.53H3739.11Z" fill="#4A3AFF"/>
<path d="M3739.11 1834.96L3616.41 1642.15L3494 1834.96H3739.11Z" fill="#4A3AFF"/>
<circle cx="5165" cy="1101" r="1101" fill="#EBE9FF"/>
<mask id="mask0_1702_275" style="mask-type:alpha" maskUnits="userSpaceOnUse" x="6671" y="0" width="3333" height="5000">
<path d="M10004 0H6671V5000H10004V0Z" fill="#EBE9FF"/>
</mask>
<g mask="url(#mask0_1702_275)">
<circle cx="9184" cy="391" r="1482" fill="white"/>
</g>
<path d="M5490.86 3759.02L5920.51 3329.59L6349.94 3759.02H6464.74L5920.51 3214.79L5376.27 3759.02H5490.86Z" fill="#4A3AFF"/>
<path d="M5170 3277.52V3392.32L5920.49 2641.83L6670.98 3392.32V3277.52L5920.49 2527.24L5170 3277.52Z" fill="#4A3AFF"/>
<path d="M5170 3621.51V3736.1L5920.49 2985.61L6670.98 3736.1V3621.51L5920.49 2871.02L5170 3621.51Z" fill="#4A3AFF"/>
<path d="M5193.77 847L5170 870.988V985.575L5308.58 847H5193.77Z" fill="#4A3AFF"/>
<path d="M5537.75 847L5170 1214.75V1329.34L5652.34 847H5537.75Z" fill="#4A3AFF"/>
<path d="M5834.6 3759.04L5920.49 3673.37L6006.16 3759.04H6120.96L5920.49 3558.57L5720.01 3759.04H5834.6Z" fill="#4A3AFF"/>
<path d="M5881.51 847L5170 1558.51V1673.31L5920.49 922.82L6670.98 1673.31V1558.51L5959.47 847H5881.51Z" fill="#4A3AFF"/>
<path d="M6188.45 847L6671 1329.34V1214.75L6303.25 847H6188.45Z" fill="#4A3AFF"/>
<path d="M6532.39 847L6670.97 985.575V870.988L6646.98 847H6532.39Z" fill="#4A3AFF"/>
<path d="M5170 2590.01V2704.59L5920.49 1954.32L6670.98 2704.59V2590.01L5920.49 1839.52L5170 2590.01Z" fill="#4A3AFF"/>
<path d="M5170 2933.79V3048.59L5920.49 2298.1L6670.98 3048.59V2933.79L5920.49 2183.3L5170 2933.79Z" fill="#4A3AFF"/>
<path d="M5170 1902.23V2017.03L5920.49 1266.54L6670.98 2017.03V1902.23L5920.49 1151.96L5170 1902.23Z" fill="#4A3AFF"/>
<path d="M5170 2246.23V2360.81L5920.49 1610.32L6670.98 2360.81V2246.23L5920.49 1495.74L5170 2246.23Z" fill="#4A3AFF"/>
<path d="M3658.86 10000L4088.51 9570.59L4517.94 10000H4632.74L4088.51 9455.79L3544.27 10000H3658.86Z" fill="#4A3AFF"/>
<path d="M3338 9518.52V9633.32L4088.49 8882.83L4838.98 9633.32V9518.52L4088.49 8768.24L3338 9518.52Z" fill="#4A3AFF"/>
<path d="M3338 9862.51V9977.1L4088.49 9226.61L4838.98 9977.1V9862.51L4088.49 9112.02L3338 9862.51Z" fill="#4A3AFF"/>
<path d="M3361.77 7088L3338 7111.99V7226.58L3476.58 7088H3361.77Z" fill="#4A3AFF"/>
<path d="M3705.75 7088L3338 7455.75V7570.34L3820.34 7088H3705.75Z" fill="#4A3AFF"/>
<path d="M4002.6 10000L4088.49 9914.37L4174.16 10000H4288.96L4088.49 9799.57L3888.01 10000H4002.6Z" fill="#4A3AFF"/>
<path d="M4049.51 7088L3338 7799.51V7914.31L4088.49 7163.82L4838.98 7914.31V7799.51L4127.47 7088H4049.51Z" fill="#4A3AFF"/>
<path d="M4356.45 7088L4839 7570.34V7455.75L4471.25 7088H4356.45Z" fill="#4A3AFF"/>
<path d="M4700.39 7088L4838.97 7226.58V7111.99L4814.98 7088H4700.39Z" fill="#4A3AFF"/>
<path d="M3338 8831.01V8945.59L4088.49 8195.32L4838.98 8945.59V8831.01L4088.49 8080.52L3338 8831.01Z" fill="#4A3AFF"/>
<path d="M3338 9174.79V9289.59L4088.49 8539.1L4838.98 9289.59V9174.79L4088.49 8424.3L3338 9174.79Z" fill="#4A3AFF"/>
<path d="M3338 8143.23V8258.03L4088.49 7507.54L4838.98 8258.03V8143.23L4088.49 7392.96L3338 8143.23Z" fill="#4A3AFF"/>
<path d="M3338 8487.23V8601.81L4088.49 7851.32L4838.98 8601.81V8487.23L4088.49 7736.74L3338 8487.23Z" fill="#4A3AFF"/>
<path d="M9878.61 481.029C9887.12 473.938 9895.41 466.42 9903.43 458.407C10022 339.834 10038 163.606 9939.24 64.8185C9840.38 -34.0395 9664.16 -18.0123 9545.59 100.561C9537.57 108.574 9530.06 116.871 9522.96 125.381C9515.87 116.871 9508.36 108.574 9500.34 100.561C9381.84 -18.0123 9205.62 -34.0395 9106.83 64.8185C9007.97 163.606 9024 339.834 9142.57 458.407C9150.59 466.42 9158.88 473.938 9167.39 481.029C9158.88 488.121 9150.59 495.638 9142.57 503.652C9024 622.225 9007.97 798.453 9106.76 897.24C9205.55 996.027 9381.77 980 9500.34 861.427C9508.36 853.413 9515.87 845.116 9522.96 836.606C9530.06 845.116 9537.57 853.413 9545.59 861.427C9664.16 980 9840.38 996.027 9939.17 897.24C10038 798.453 10021.9 622.225 9903.36 503.652C9895.41 495.567 9887.12 488.05 9878.61 481.029ZM9523.04 665.98C9420.85 665.98 9338.02 583.149 9338.02 480.958C9338.02 378.767 9420.85 295.936 9523.04 295.936C9625.23 295.936 9708.05 378.767 9708.05 480.958C9707.98 583.149 9625.15 665.98 9523.04 665.98Z" fill="#4A3AFF"/>
<path d="M9523 798V2022" stroke="#4A3AFF" stroke-width="25"/>
<path d="M9331 1137V2361" stroke="#4A3AFF" stroke-width="25"/>
<path d="M9715 1152V2376" stroke="#4A3AFF" stroke-width="25"/>
<path d="M6946.99 247.072C6954.93 213.751 6934.36 180.306 6901.05 172.37C6867.73 164.434 6834.3 185.012 6826.37 218.332C6818.43 251.653 6839 285.098 6872.31 293.034C6905.62 300.97 6939.06 280.392 6946.99 247.072Z" fill="#4A3AFF"/>
<path d="M9862.99 3650.07C9870.93 3616.75 9850.36 3583.31 9817.05 3575.37C9783.73 3567.43 9750.3 3588.01 9742.37 3621.33C9734.43 3654.65 9755 3688.1 9788.31 3696.03C9821.62 3703.97 9855.06 3683.39 9862.99 3650.07Z" fill="#4A3AFF"/>
<path d="M6930.52 471.432C6954.73 447.212 6954.73 407.944 6930.52 383.725C6906.31 359.505 6867.05 359.505 6842.84 383.725C6818.63 407.944 6818.63 447.212 6842.84 471.432C6867.05 495.651 6906.31 495.651 6930.52 471.432Z" fill="#4A3AFF"/>
<path d="M9846.52 3874.43C9870.73 3850.21 9870.73 3810.94 9846.52 3786.72C9822.31 3762.51 9783.05 3762.51 9758.84 3786.72C9734.63 3810.94 9734.63 3850.21 9758.84 3874.43C9783.05 3898.65 9822.31 3898.65 9846.52 3874.43Z" fill="#4A3AFF"/>
<path d="M6947.02 636.712C6954.95 603.392 6934.38 569.947 6901.07 562.011C6867.76 554.074 6834.33 574.653 6826.39 607.973C6818.46 641.293 6839.03 674.738 6872.34 682.674C6905.65 690.611 6939.09 670.033 6947.02 636.712Z" fill="#4A3AFF"/>
<path d="M9863.02 4039.71C9870.95 4006.39 9850.38 3972.95 9817.07 3965.01C9783.76 3957.07 9750.33 3977.65 9742.39 4010.97C9734.46 4044.29 9755.03 4077.74 9788.34 4085.67C9821.65 4093.61 9855.09 4073.03 9863.02 4039.71Z" fill="#4A3AFF"/>
<path d="M6670.99 9567.7V10000H6238.66V9567.7H6670.99ZM6650.31 9979.35V9588.38H6259.34V9979.35H6650.31Z" fill="#4A3AFF"/>
<path d="M6259.34 9156.06V9588.39H5827.02V9156.06H6259.34ZM6238.67 9567.71V9176.74H5847.69V9567.71H6238.67Z" fill="#4A3AFF"/>
<path d="M6259.34 8744.63V9176.68H5827.02V8744.63H6259.34ZM6238.67 9156V8765.31H5847.69V9156.28H6238.67V9156Z" fill="#4A3AFF"/>
<path d="M5847.7 9156.06V9588.39H5415.64V9156.06H5847.7ZM5827.02 9567.71V9176.74H5436.32V9567.71H5827.02Z" fill="#4A3AFF"/>
<path d="M6670.99 9156.06V9588.39H6238.66V9156.06H6670.99ZM6650.31 9567.71V9176.74H6259.34V9567.71H6650.31Z" fill="#4A3AFF"/>
<path d="M6670.99 8744.63V9176.68H6238.66V8744.63H6670.99ZM6650.31 9156V8765.31H6259.34V9156.28H6650.31V9156Z" fill="#4A3AFF"/>
<path d="M6670.99 8332.98V8765.31H6238.66V8332.98H6670.99ZM6650.31 8744.63V8353.66H6259.34V8744.63H6650.31Z" fill="#4A3AFF"/>
<path d="M6259.34 9567.7V10000H5827.02V9567.7H6259.34ZM6238.67 9979.35V9588.38H5847.69V9979.35H6238.67Z" fill="#4A3AFF"/>
<path d="M5847.7 9567.7V10000H5415.64V9567.7H5847.7ZM5827.02 9979.35V9588.38H5436.32V9979.35H5827.02Z" fill="#4A3AFF"/>
<path d="M5436.33 9567.7V10000H5004V9567.7H5436.33ZM5415.65 9979.35V9588.38H5024.68V9979.35H5415.65Z" fill="#4A3AFF"/>
<path d="M10007 8532.71V8965.04H9574.66V8532.71H10007ZM9986.31 8944.37V8553.39H9595.34V8944.37H9986.31Z" fill="#4A3AFF"/>
<path d="M9595.34 8121.07V8553.4H9163.02V8121.07H9595.34ZM9574.67 8532.72V8141.75H9183.69V8532.72H9574.67Z" fill="#4A3AFF"/>
<path d="M9595.34 7709.64V8141.7H9163.02V7709.64H9595.34ZM9574.67 8121.02V7730.32H9183.69V8121.29H9574.67V8121.02Z" fill="#4A3AFF"/>
<path d="M9183.69 8121.07V8553.4H8751.64V8121.07H9183.69ZM9163.02 8532.72V8141.75H8772.32V8532.72H9163.02Z" fill="#4A3AFF"/>
<path d="M10007 8121.07V8553.4H9574.66V8121.07H10007ZM9986.31 8532.72V8141.75H9595.34V8532.72H9986.31Z" fill="#4A3AFF"/>
<path d="M10007 7709.64V8141.7H9574.66V7709.64H10007ZM9986.31 8121.02V7730.32H9595.34V8121.29H9986.31V8121.02Z" fill="#4A3AFF"/>
<path d="M10007 7298V7730.33H9574.66V7298H10007ZM9986.31 7709.65V7318.68H9595.34V7709.65H9986.31Z" fill="#4A3AFF"/>
<path d="M9595.34 8532.71V8965.04H9163.02V8532.71H9595.34ZM9574.67 8944.37V8553.39H9183.69V8944.37H9574.67Z" fill="#4A3AFF"/>
<path d="M9183.69 8532.71V8965.04H8751.64V8532.71H9183.69ZM9163.02 8944.37V8553.39H8772.32V8944.37H9163.02Z" fill="#4A3AFF"/>
<path d="M8772.33 8532.71V8965.04H8340V8532.71H8772.33ZM8751.65 8944.37V8553.39H8360.68V8944.37H8751.65Z" fill="#4A3AFF"/>
<path d="M4208.16 6197C4193.86 6196.69 4182.71 6184.75 4183.18 6170.61C4183.49 6156.32 4195.43 6145.17 4209.57 6145.49C4223.71 6145.8 4234.86 6157.74 4234.55 6172.03C4234.23 6185.85 4222.77 6197 4208.79 6197C4208.63 6197 4208.47 6197 4208.16 6197ZM4286.55 6170.46C4285.45 6156.32 4295.81 6143.92 4309.95 6142.66C4324.09 6141.4 4336.5 6151.93 4337.91 6166.06C4339.01 6180.2 4328.49 6192.6 4314.35 6194.02C4314.35 6194.02 4314.35 6194.02 4314.35 6193.86C4313.72 6194.02 4312.94 6194.02 4312.15 6194.02C4298.8 6194.02 4287.65 6183.96 4286.55 6170.46ZM4102.28 6188.2C4088.14 6186.16 4078.4 6173.13 4080.44 6159.15C4082.48 6145.02 4095.52 6135.28 4109.5 6137.32C4123.49 6139.2 4133.22 6152.24 4131.34 6166.37C4129.61 6179.25 4118.46 6188.52 4105.89 6188.52C4104.79 6188.36 4103.53 6188.2 4102.28 6188.2ZM4389.13 6158.84C4386.46 6145.02 4395.41 6131.35 4409.23 6128.68C4423.06 6125.85 4436.73 6134.81 4439.55 6148.78C4442.22 6162.61 4433.27 6176.27 4419.29 6179.1C4417.56 6179.41 4415.99 6179.57 4414.1 6179.57C4402.32 6179.57 4391.64 6171.09 4389.13 6158.84ZM3998.13 6167.16C3984.3 6163.55 3976.13 6149.57 3979.75 6135.75C3983.36 6121.93 3997.34 6113.76 4011.17 6117.37C4024.99 6120.99 4033.16 6134.96 4029.54 6148.78C4026.4 6160.41 4016.03 6168.1 4004.72 6168.1C4002.53 6168.1 4000.33 6167.63 3998.13 6167.16ZM4489.82 6135.43C4485.42 6121.93 4492.96 6107.48 4506.32 6103.08H4506.47C4519.98 6098.68 4534.44 6106.22 4538.83 6119.73C4543.23 6133.24 4535.69 6147.68 4522.18 6152.08C4519.67 6152.87 4516.84 6153.18 4514.17 6153.18C4503.33 6153.18 4493.44 6146.27 4489.82 6135.43ZM3896.96 6134.34C3883.92 6129.15 3877.32 6114.23 3882.35 6101.04C3887.69 6087.85 3902.46 6081.25 3915.81 6086.43H3915.65C3928.85 6091.62 3935.45 6106.54 3930.26 6119.73C3926.34 6129.94 3916.6 6136.22 3906.39 6136.22C3903.24 6136.22 3900.1 6135.59 3896.96 6134.34ZM4587.06 6100.73C4581.09 6087.69 4586.75 6072.61 4599.79 6066.64C4612.67 6060.68 4627.91 6066.33 4633.87 6079.21C4639.84 6092.24 4634.03 6107.32 4621.15 6113.45C4617.69 6115.02 4614.08 6115.8 4610.47 6115.8C4600.73 6115.8 4591.46 6110.15 4587.06 6100.73ZM3800.35 6090.36C3787.78 6083.61 3782.91 6068.06 3789.51 6055.65C3796.26 6043.09 3811.82 6038.22 3824.23 6044.81C3836.79 6051.57 3841.66 6067.12 3835.07 6079.52C3830.51 6088.32 3821.4 6093.34 3812.29 6093.34C3808.2 6093.19 3804.12 6092.4 3800.35 6090.36ZM4679.75 6055.02C4672.36 6042.77 4676.45 6027.07 4688.54 6019.69C4700.8 6012.3 4716.5 6016.23 4723.89 6028.32C4731.27 6040.57 4727.19 6056.28 4715.09 6063.66C4711.01 6066.17 4706.29 6067.43 4701.9 6067.43C4693.1 6067.43 4684.62 6063.03 4679.75 6055.02ZM3709.39 6035.39C3697.77 6027.38 3694.78 6011.36 3702.64 5999.58C3710.65 5987.8 3726.67 5984.98 3738.45 5992.83C3750.24 6000.84 3753.06 6016.86 3745.21 6028.64C3740.18 6035.86 3732.17 6039.79 3724 6039.79C3718.82 6039.95 3713.79 6038.53 3709.39 6035.39ZM4766.62 5998.95C4757.82 5987.8 4759.86 5971.63 4771.17 5962.99C4782.33 5954.19 4798.51 5956.24 4807.15 5967.7C4815.94 5978.85 4813.9 5995.03 4802.59 6003.67C4798.03 6007.44 4792.38 6009.01 4786.88 6009.01C4779.18 6009.01 4771.64 6005.55 4766.62 5998.95ZM3625.19 5970.68C3614.35 5961.26 3613.25 5945.08 3622.68 5934.25C3631.95 5923.57 3648.13 5922.47 3658.97 5931.74C3669.65 5941 3670.75 5957.34 3661.48 5968.01C3656.3 5973.98 3649.23 5976.97 3642 5976.97C3636.03 5976.81 3630.22 5974.77 3625.19 5970.68ZM4846.42 5933.62C4836.52 5923.41 4836.84 5907.08 4846.89 5897.18C4857.1 5887.29 4873.44 5887.6 4883.34 5897.65C4893.23 5907.86 4892.92 5924.2 4882.86 5934.09C4877.84 5938.96 4871.4 5941.47 4864.96 5941.47C4858.36 5941.47 4851.6 5938.8 4846.42 5933.62ZM3549 5896.56C3539.42 5886.19 3540.21 5869.86 3550.57 5860.12C3560.94 5850.54 3577.28 5851.32 3586.86 5861.85C3596.44 5872.21 3595.82 5888.39 3585.45 5898.13C3580.42 5902.68 3574.29 5904.88 3568.01 5904.88C3560.94 5904.88 3554.19 5902.05 3549 5896.56ZM4918.52 5859.49C4907.53 5850.54 4905.96 5834.36 4914.91 5823.21C4923.86 5812.22 4940.05 5810.65 4951.2 5819.6C4962.2 5828.55 4963.77 5844.73 4954.81 5855.88C4949.63 5862 4942.4 5865.3 4934.86 5865.3C4929.21 5865.3 4923.39 5863.42 4918.52 5859.49ZM3481.77 5814.42C3473.44 5802.95 3475.8 5786.93 3487.27 5778.61C3498.89 5770.28 3514.91 5772.64 3523.24 5784.26C3531.57 5795.73 3529.05 5811.75 3517.58 5820.07C3512.87 5823.37 3507.69 5824.94 3502.35 5824.94C3494.65 5824.94 3486.79 5821.33 3481.77 5814.42ZM4981.67 5777.67C4969.74 5769.97 4966.44 5754.11 4974.13 5742.17C4981.67 5730.23 4997.7 5726.78 5009.64 5734.48C5021.58 5742.17 5025.03 5758.19 5017.33 5769.97C5012.46 5777.67 5004.14 5781.75 4995.66 5781.75C4990.79 5781.75 4986.07 5780.49 4981.67 5777.67ZM3424.12 5725.21C3417.05 5712.8 3421.44 5697.1 3433.85 5690.19C3446.27 5683.12 3461.82 5687.52 3468.89 5699.77C3475.8 5712.17 3471.4 5727.72 3459.3 5734.79C3455.22 5737.15 3450.82 5738.24 3446.58 5738.24C3437.47 5738.24 3428.99 5733.53 3424.12 5725.21ZM5035.09 5689.24C5022.36 5682.96 5017.02 5667.73 5023.3 5654.85C5029.59 5642.13 5044.98 5636.94 5057.71 5643.23C5070.43 5649.51 5075.77 5664.9 5069.49 5677.62C5064.93 5686.73 5055.82 5692.07 5046.4 5692.07C5042.78 5691.91 5038.86 5690.97 5035.09 5689.24ZM3377.14 5630.03C3371.65 5616.84 3377.77 5601.92 3390.81 5596.27C3403.85 5590.93 3418.93 5596.9 3424.59 5610.09C3430.08 5623.12 3423.96 5638.2 3410.76 5643.7C3407.62 5645.11 3404.01 5645.74 3400.71 5645.74C3390.81 5645.74 3381.39 5639.77 3377.14 5630.03ZM5078.13 5595.17C5064.78 5590.46 5057.86 5575.69 5062.58 5562.19C5067.29 5548.84 5082.06 5541.93 5095.57 5546.64C5108.92 5551.35 5115.83 5566.11 5111.12 5579.62C5107.35 5590.14 5097.45 5596.74 5086.93 5596.74C5083.78 5596.74 5080.96 5596.27 5078.13 5595.17ZM3341.33 5529.99C3337.4 5516.33 3345.1 5502.03 3358.61 5498.11C3372.28 5494.03 3386.57 5501.88 3390.65 5515.54C3394.58 5529.21 3386.73 5543.5 3373.22 5547.42C3370.7 5548.21 3368.35 5548.52 3365.99 5548.52C3354.84 5548.37 3344.63 5541.3 3341.33 5529.99ZM5110.02 5496.85C5096.19 5493.71 5087.71 5479.89 5090.85 5466.07C5093.99 5452.25 5107.82 5443.77 5121.64 5446.91C5135.47 5450.05 5143.95 5463.87 5140.81 5477.69C5138.14 5489.47 5127.61 5497.48 5115.83 5497.48C5113.95 5497.48 5112.06 5497.32 5110.02 5496.85ZM3317.29 5426.49C3314.78 5412.51 3324.21 5399.16 3338.19 5396.81C3352.17 5394.3 3365.52 5403.72 3367.88 5417.7C3370.39 5431.67 3360.96 5445.02 3346.98 5447.38C3345.41 5447.69 3344 5447.69 3342.58 5447.69C3330.33 5447.85 3319.34 5439.06 3317.29 5426.49ZM5130.44 5395.55C5116.3 5393.98 5106.09 5381.26 5107.82 5367.13C5109.39 5352.99 5122.11 5342.94 5136.25 5344.51C5150.39 5346.08 5160.6 5358.96 5158.87 5372.94C5157.46 5385.97 5146.31 5395.87 5133.42 5395.87C5132.32 5395.87 5131.38 5395.71 5130.44 5395.55ZM3305.04 5320.95C3304.25 5306.82 3315.09 5294.72 3329.39 5293.78C3343.53 5293 3355.62 5303.83 3356.57 5318.12C3357.35 5332.26 3346.51 5344.35 3332.37 5345.29C3331.9 5345.29 3331.27 5345.29 3330.8 5345.29C3317.29 5345.29 3305.98 5334.77 3305.04 5320.95ZM5113.47 5267.08C5113.47 5266.77 5113.47 5266.45 5113.47 5265.98C5113.47 5265.67 5113.47 5265.51 5113.47 5265.04C5113.32 5250.91 5124.94 5239.28 5139.08 5239.28C5153.38 5239.28 5164.84 5250.75 5165 5265.04C5165 5265.35 5165 5265.67 5165 5265.98C5165 5266.3 5165 5266.61 5165 5267.08C5165 5281.22 5153.38 5292.84 5139.24 5292.84C5124.94 5292.68 5113.47 5281.22 5113.47 5267.08ZM3329.23 5242.11C3315.09 5241.17 3304.25 5229.07 3305.04 5214.94C3305.83 5200.65 3317.92 5189.81 3332.06 5190.6C3346.36 5191.38 3357.19 5203.63 3356.41 5217.77C3355.62 5231.43 3344.31 5242.11 3330.65 5242.11C3330.33 5242.11 3329.7 5242.11 3329.23 5242.11ZM5107.5 5165C5105.78 5150.86 5115.99 5138.14 5130.13 5136.41C5144.26 5134.84 5156.99 5144.89 5158.56 5159.03C5160.29 5173.16 5150.23 5185.88 5136.1 5187.46C5135 5187.61 5134.05 5187.77 5133.11 5187.77C5120.07 5187.77 5109.08 5178.03 5107.5 5165ZM3338.03 5139.08C3324.05 5136.57 3314.62 5123.38 3316.98 5109.4C3319.49 5095.42 3332.69 5086 3346.67 5088.35C3360.65 5090.87 3370.08 5104.06 3367.56 5118.04C3365.52 5130.6 3354.52 5139.55 3342.27 5139.55C3340.86 5139.55 3339.44 5139.4 3338.03 5139.08ZM5090.22 5066.05C5087.08 5052.23 5095.57 5038.41 5109.55 5035.27C5123.37 5032.13 5137.19 5040.61 5140.34 5054.43C5143.48 5068.25 5135 5082.07 5121.17 5085.21C5119.13 5085.68 5117.24 5086 5115.2 5086C5103.73 5086 5093.05 5077.83 5090.22 5066.05ZM3358.14 5037.78C3344.47 5033.86 3336.77 5019.56 3340.7 5005.9C3344.78 4992.24 3359.08 4984.38 3372.59 4988.47C3386.41 4992.39 3394.11 5006.69 3390.18 5020.35C3386.88 5031.5 3376.52 5038.88 3365.36 5038.88C3363.01 5038.88 3360.65 5038.41 3358.14 5037.78ZM5061.79 4969.94C5057.08 4956.59 5063.99 4941.82 5077.34 4936.95C5090.7 4932.24 5105.31 4939.15 5110.33 4952.5C5115.04 4965.85 5108.13 4980.46 5094.78 4985.33C5091.95 4986.43 5088.97 4986.9 5085.98 4986.9C5075.46 4986.9 5065.72 4980.3 5061.79 4969.94ZM3390.03 4939.47C3376.99 4933.97 3370.7 4918.89 3376.2 4905.86C3381.7 4892.82 3396.94 4886.54 3409.82 4892.04C3422.86 4897.53 3429.14 4912.77 3423.64 4925.65C3419.56 4935.54 3409.98 4941.51 3399.92 4941.51C3396.78 4941.51 3393.33 4940.88 3390.03 4939.47ZM5022.68 4877.59C5016.39 4864.87 5021.58 4849.47 5034.3 4843.19C5047.02 4836.91 5062.42 4842.09 5068.7 4854.81C5068.7 4854.81 5068.7 4854.81 5068.7 4854.97C5074.99 4867.69 5069.8 4882.93 5057.08 4889.37C5053.31 4891.25 5049.54 4892.04 5045.61 4892.04C5036.34 4891.88 5027.07 4886.54 5022.68 4877.59ZM3432.91 4845.39C3420.5 4838.32 3416.26 4822.62 3423.33 4810.21C3430.24 4797.8 3445.95 4793.56 3458.36 4800.47C3470.77 4807.38 3475.01 4823.09 3468.1 4835.5V4835.65C3463.39 4843.98 3454.59 4848.69 3445.64 4848.69C3441.24 4848.69 3436.84 4847.59 3432.91 4845.39ZM4973.03 4790.27C4965.34 4778.49 4968.79 4762.47 4980.73 4754.77C4992.67 4747.08 5008.54 4750.53 5016.23 4762.31C5023.93 4774.25 5020.63 4790.27 5008.69 4797.96C5004.3 4800.79 4999.58 4802.04 4994.87 4802.04C4986.23 4802.2 4978.06 4797.96 4973.03 4790.27ZM3486.32 4756.97C3474.7 4748.65 3472.19 4732.47 3480.51 4721.16C3488.84 4709.54 3505.02 4707.18 3516.48 4715.35C3527.95 4723.67 3530.47 4739.69 3522.14 4751.32C3517.11 4758.23 3509.26 4761.84 3501.25 4761.84C3496.22 4761.84 3490.88 4760.27 3486.32 4756.97ZM4913.81 4709.38C4904.86 4698.39 4906.43 4682.21 4917.42 4673.26C4928.42 4664.31 4944.6 4665.88 4953.56 4676.71C4962.51 4687.71 4960.94 4704.04 4950.1 4712.99C4945.23 4716.92 4939.42 4718.81 4933.76 4718.81C4926.38 4718.65 4919 4715.51 4913.81 4709.38ZM3549.47 4674.99C3539.11 4665.41 3538.32 4649.07 3547.9 4638.71C3557.49 4628.19 3573.82 4627.56 3584.19 4636.98C3594.72 4646.56 3595.34 4662.89 3585.92 4673.42C3580.74 4678.91 3573.82 4681.74 3566.91 4681.74C3560.63 4681.74 3554.34 4679.54 3549.47 4674.99ZM4845.79 4635.57C4835.58 4625.83 4835.42 4609.5 4845.32 4599.29C4855.06 4589.08 4871.4 4588.76 4881.61 4598.66C4891.82 4608.55 4892.13 4624.89 4882.24 4635.1C4877.21 4640.28 4870.45 4642.95 4863.7 4642.95C4857.26 4642.79 4850.82 4640.44 4845.79 4635.57ZM3621.42 4601.01C3612 4590.18 3613.25 4574 3623.94 4564.58C3623.94 4564.58 3623.94 4564.58 3623.94 4564.74C3634.77 4555.31 3650.95 4556.57 3660.22 4567.25C3669.65 4577.93 3668.39 4594.1 3657.71 4603.53C3652.84 4607.77 3646.71 4609.81 3640.9 4609.81C3633.67 4609.65 3626.45 4606.67 3621.42 4601.01ZM4769.92 4569.92C4758.76 4561.28 4756.56 4545.1 4765.36 4533.95C4774 4522.64 4790.18 4520.6 4801.33 4529.24C4812.64 4537.88 4814.69 4554.06 4806.05 4565.21C4800.86 4571.96 4793.32 4575.26 4785.62 4575.26C4780.13 4575.26 4774.63 4573.53 4769.92 4569.92ZM3701.22 4535.37C3693.06 4523.59 3696.04 4507.57 3707.82 4499.56C3719.45 4491.39 3735.63 4494.37 3743.64 4506.15C3751.65 4517.78 3748.67 4533.95 3736.88 4541.96C3732.33 4545.1 3727.3 4546.67 3722.27 4546.67C3714.26 4546.52 3706.25 4542.59 3701.22 4535.37ZM4686.97 4513.38C4674.72 4506 4670.79 4490.29 4678.17 4478.04C4685.56 4465.95 4701.27 4462.02 4713.52 4469.25C4725.62 4476.63 4729.54 4492.33 4722.32 4504.58C4717.6 4512.59 4708.96 4516.99 4700.17 4516.99C4695.61 4517.15 4691.21 4515.89 4686.97 4513.38ZM3788.1 4479.3C3781.34 4466.73 3786.21 4451.18 3798.78 4444.59C3811.19 4437.84 3826.74 4442.7 3833.49 4455.11C3840.25 4467.68 3835.38 4483.22 3822.81 4489.98C3818.89 4492.02 3814.8 4492.96 3810.87 4492.96C3801.61 4492.96 3792.65 4488.09 3788.1 4479.3ZM4598.21 4466.58C4585.18 4460.61 4579.52 4445.53 4585.49 4432.5C4591.46 4419.62 4606.54 4413.81 4619.42 4419.77C4619.42 4419.77 4619.42 4419.77 4619.58 4419.77C4632.46 4425.74 4638.27 4440.82 4632.3 4453.85C4627.91 4463.44 4618.48 4468.93 4608.9 4468.93C4605.28 4468.93 4601.67 4468.15 4598.21 4466.58ZM3880.62 4433.59C3875.44 4420.4 3882.04 4405.48 3895.23 4400.3C3908.43 4395.12 3923.19 4401.56 3928.54 4414.75C3933.72 4427.94 3927.12 4442.86 3913.93 4448.04C3910.78 4449.3 3907.8 4449.77 3904.5 4449.77C3894.29 4449.93 3884.71 4443.65 3880.62 4433.59ZM4504.59 4430.3C4491.08 4425.9 4483.7 4411.45 4487.94 4397.94C4492.34 4384.44 4506.79 4377.06 4520.3 4381.3C4533.81 4385.69 4541.19 4400.14 4536.95 4413.65C4533.34 4424.64 4523.28 4431.55 4512.44 4431.55C4509.77 4431.55 4507.1 4431.24 4504.59 4430.3ZM3978.02 4398.73C3974.41 4384.91 3982.57 4370.93 3996.24 4367.32C4010.07 4363.55 4024.05 4371.87 4027.82 4385.54C4031.43 4399.36 4023.26 4413.33 4009.44 4416.95C4007.24 4417.58 4005.04 4417.89 4002.84 4417.89C3991.37 4417.89 3981 4410.19 3978.02 4398.73ZM4407.35 4405.01C4393.53 4402.34 4384.41 4388.68 4387.08 4374.86C4389.91 4361.04 4403.42 4351.77 4417.4 4354.75C4431.23 4357.58 4440.34 4371.09 4437.51 4384.91C4435 4397.16 4424.31 4405.64 4412.38 4405.64C4410.81 4405.48 4409.08 4405.33 4407.35 4405.01ZM4078.56 4375.33C4076.67 4361.19 4086.25 4348.16 4100.39 4346.12C4114.37 4344.07 4127.57 4353.81 4129.45 4367.95C4131.5 4381.92 4121.76 4394.96 4107.78 4397C4106.52 4397.16 4105.26 4397.32 4104.01 4397.32C4091.44 4397.32 4080.44 4388.05 4078.56 4375.33ZM4308.07 4391.19C4293.93 4389.93 4283.4 4377.53 4284.5 4363.39C4285.6 4349.1 4298.17 4338.73 4312.31 4339.83C4326.45 4340.93 4336.97 4353.5 4335.87 4367.63C4334.77 4380.98 4323.46 4391.19 4310.11 4391.19C4309.48 4391.19 4308.7 4391.19 4308.07 4391.19ZM4181.14 4363.55C4180.82 4349.26 4191.98 4337.32 4206.12 4337.01C4220.41 4336.69 4232.19 4347.69 4232.66 4361.98C4233.13 4376.11 4221.98 4387.89 4207.69 4388.52C4207.37 4388.52 4207.21 4388.52 4206.9 4388.52C4192.92 4388.36 4181.61 4377.37 4181.14 4363.55Z" fill="#4A3AFF"/>
<path d="M1122.05 4565.32C1117.42 4561.62 1112.79 4557.92 1107.98 4554.4L326.4 5336.16C329.919 5340.79 333.622 5345.61 337.325 5350.23L1122.05 4565.32Z" fill="#AFA7FF"/>
<path d="M931.127 4464.95C924.646 4463.1 918.165 4461.24 911.499 4459.58L231.576 5139.5C233.243 5145.98 235.094 5152.46 236.946 5159.13L931.127 4464.95Z" fill="#AFA7FF"/>
<path d="M1065.21 4524.96C1060.02 4521.82 1054.84 4518.67 1049.65 4515.71L287.703 5277.66C290.666 5282.84 293.814 5288.03 296.961 5293.21L1065.21 4524.96Z" fill="#AFA7FF"/>
<path d="M1001.87 4491.25C996.134 4488.66 990.394 4486.07 984.469 4483.66L255.662 5212.47C258.069 5218.21 260.662 5224.13 263.254 5229.87L1001.87 4491.25Z" fill="#AFA7FF"/>
<path d="M851.343 4447.53C843.936 4446.42 836.53 4445.68 829.123 4444.75L216.785 5057.27C217.526 5064.68 218.452 5072.09 219.563 5079.49L851.343 4447.53Z" fill="#AFA7FF"/>
<path d="M1166.67 4605.28C1164.64 4603.24 1162.42 4601.21 1160.38 4599.17L371.209 5388.34C373.246 5390.38 375.283 5392.6 377.319 5394.64C379.356 5396.67 381.578 5398.71 383.615 5400.75L1172.79 4611.58C1170.75 4609.54 1168.71 4607.32 1166.67 4605.28Z" fill="#AFA7FF"/>
<path d="M759.864 4442C751.161 4442.19 742.459 4442.56 733.756 4443.11L215.296 4961.57C214.555 4970.46 214.185 4979.16 214 4987.86L759.864 4442Z" fill="#AFA7FF"/>
<path d="M227.525 4877.15L649.144 4455.53C637.849 4458.12 626.739 4460.9 615.63 4464.23L236.043 4843.82C232.895 4854.74 229.933 4866.04 227.525 4877.15Z" fill="#AFA7FF"/>
<path d="M1328.89 5038.43C1329.44 5029.72 1329.81 5021.02 1330 5012.32L784.32 5558C793.023 5557.81 801.726 5557.44 810.428 5556.89L1328.89 5038.43Z" fill="#AFA7FF"/>
<path d="M1327.2 4942.9C1326.46 4935.49 1325.53 4928.08 1324.42 4920.68L692.642 5552.64C700.048 5553.75 707.455 5554.49 714.861 5555.42L1327.2 4942.9Z" fill="#AFA7FF"/>
<path d="M488.598 4519.03C448.973 4542.55 411.57 4571.25 377.499 4605.32C343.429 4639.39 314.729 4676.79 291.213 4716.42L488.598 4519.03Z" fill="#AFA7FF"/>
<path d="M1307.94 5156.35C1311.09 5145.24 1314.05 5134.13 1316.64 5122.84L894.839 5544.46C906.134 5541.87 917.244 5539.09 928.354 5535.76L1307.94 5156.35Z" fill="#AFA7FF"/>
<path d="M1055.56 5480.94C1095.18 5457.42 1132.58 5428.72 1166.66 5394.65C1200.73 5360.58 1229.43 5323.18 1252.94 5283.55L1055.56 5480.94Z" fill="#AFA7FF"/>
<path d="M1256.3 4722.35C1253.34 4717.17 1250.19 4711.98 1247.05 4706.8L478.8 5475.04C483.984 5478.19 489.169 5481.34 494.354 5484.3L1256.3 4722.35Z" fill="#AFA7FF"/>
<path d="M1217.78 4664.02C1214.27 4659.39 1210.56 4654.58 1206.86 4649.95L421.948 5434.86C426.577 5438.56 431.206 5442.27 436.021 5445.78L1217.78 4664.02Z" fill="#AFA7FF"/>
<path d="M1312.56 4860.46C1310.9 4853.97 1309.04 4847.49 1307.19 4840.83L612.826 5535.19C619.307 5537.05 625.788 5538.9 632.454 5540.56L1312.56 4860.46Z" fill="#AFA7FF"/>
<path d="M1288.34 4787.49C1285.93 4781.75 1283.34 4775.83 1280.74 4770.09L542.124 5508.71C547.864 5511.3 553.604 5513.89 559.529 5516.3L1288.34 4787.49Z" fill="#AFA7FF"/>
<circle cx="5757.5" cy="7744.5" r="160.5" fill="white"/>
<circle cx="6078.5" cy="7904.5" r="160.5" fill="white"/>
<path d="M7199 8963.8C6913.49 8963.8 6681 9196.29 6681 9481.8C6681 9767.51 6913.49 10000 7199 10000C7484.51 10000 7717 9767.51 7717 9481.8C7717.19 9196.29 7484.71 8963.8 7199 8963.8ZM7199 9960.77C6935.05 9960.77 6720.23 9745.95 6720.23 9481.8C6720.23 9217.85 6935.05 9003.04 7199 9003.04C7462.95 9003.04 7677.77 9217.85 7677.77 9481.8C7677.96 9745.95 7463.15 9960.77 7199 9960.77Z" fill="#4A3AFF"/>
<path d="M7199.01 9245.05C7068.3 9245.05 6962.06 9351.29 6962.06 9482C6962.06 9612.72 7068.3 9718.96 7199.01 9718.96C7329.73 9718.96 7435.97 9612.72 7435.97 9482C7435.97 9351.29 7329.73 9245.05 7199.01 9245.05ZM7199.01 9679.53C7090.05 9679.53 7001.29 9590.77 7001.29 9481.81C7001.29 9372.85 7090.05 9284.28 7199.01 9284.28C7307.97 9284.28 7396.73 9373.04 7396.73 9482C7396.73 9590.96 7308.17 9679.53 7199.01 9679.53Z" fill="#4A3AFF"/>
<path d="M2728 5951.12L3239.37 6462.49V6433.37L2728 5922V5951.12Z" fill="white"/>
<path d="M2728 6215.86L3239.37 6727.23V6697.9L2728 6186.54V6215.86Z" fill="white"/>
<path d="M2728 6480.43L3239.37 6991.79V6962.67L2728 6451.31V6480.43Z" fill="white"/>
<path d="M2728 6745.04L3239.37 7256.41V7227.29L2728 6715.92V6745.04Z" fill="white"/>
<path d="M2728 7009.79L3239.37 7521.15V7491.82L2728 6980.46V7009.79Z" fill="white"/>
<path d="M2728 7274.36L3239.37 7785.72V7756.6L2728 7245.24V7274.36Z" fill="white"/>
<path d="M2728 7538.89L3239.37 8050.25V8021.13L2728 7509.77V7538.89Z" fill="white"/>
<path d="M2728 7803.72L3239.37 8315.08V8285.75L2728 7774.39V7803.72Z" fill="white"/>
<path d="M2728 8068.24L3239.37 8579.61V8550.28L2728 8038.92V8068.24Z" fill="white"/>
<path d="M2728 8332.82L3239.37 8844.18V8815.06L2728 8303.7V8332.82Z" fill="white"/>
<path d="M2728 8597.35L3239.37 9108.72V9079.6L2728 8568.23V8597.35Z" fill="white"/>
<path d="M2728 8862.17L3239.37 9373.54V9344.21L2728 8832.85V8862.17Z" fill="white"/>
<path d="M2728 9126.74L3239.37 9638.1V9608.98L2728 9097.62V9126.74Z" fill="white"/>
<path d="M2728 9391.28L3239.37 9902.64V9873.52L2728 9362.16V9391.28Z" fill="white"/>
<path d="M8674 8966V10000C8951.5 9994.9 9175 9765.49 9175 9483.03C9175 9200.51 8951.56 8971.1 8674 8966Z" fill="#EBE9FF"/>
<path d="M8968 8966V10000C9246.62 9994.9 9471 9765.49 9471 9483.03C9471 9200.51 9246.62 8971.1 8968 8966Z" fill="#C3BDFF"/>
<path d="M5918 6848.47L6344.55 7149.17L6771.1 6848.47L7197.8 7149.17L7624.35 6848.47L8051.05 7149.17L8477.6 6848.47L8904.3 7149.17L9331 6848.47" stroke="#4A3AFF" stroke-width="25" stroke-miterlimit="10" stroke-linecap="round" stroke-linejoin="round"/>
<path d="M5918 6577.83L6344.55 6878.54L6771.1 6577.83L7197.8 6878.54L7624.35 6577.83L8051.05 6878.54L8477.6 6577.83L8904.3 6878.54L9331 6577.83" stroke="#867CFF" stroke-width="25" stroke-miterlimit="10" stroke-linecap="round" stroke-linejoin="round"/>
<path d="M5 4030.64L431.55 4331.34L858.1 4030.64L1284.8 4331.34L1711.35 4030.64L2138.05 4331.34L2564.6 4030.64L2991.3 4331.34L3418 4030.64" stroke="#4A3AFF" stroke-width="25" stroke-miterlimit="10" stroke-linecap="round" stroke-linejoin="round"/>
<path d="M5 3760L431.55 4060.7L858.1 3760L1284.8 4060.7L1711.35 3760L2138.05 4060.7L2564.6 3760L2991.3 4060.7L3418 3760" stroke="#867CFF" stroke-width="25" stroke-miterlimit="10" stroke-linecap="round" stroke-linejoin="round"/>
<path d="M8148 8961V9762" stroke="#4A3AFF" stroke-width="25"/>
<path d="M7956 9199V10000" stroke="#4A3AFF" stroke-width="25"/>
<path d="M8340 9199V10000" stroke="#4A3AFF" stroke-width="25"/>
</g>
<defs>
<filter id="filter0_d_1702_275" x="0" y="0" width="10008" height="10008" filterUnits="userSpaceOnUse" color-interpolation-filters="sRGB">
<feFlood flood-opacity="0" result="BackgroundImageFix"/>
<feColorMatrix in="SourceAlpha" type="matrix" values="0 0 0 0 0 0 0 0 0 0 0 0 0 0 0 0 0 0 127 0" result="hardAlpha"/>
<feOffset dy="4"/>
<feGaussianBlur stdDeviation="2"/>
<feComposite in2="hardAlpha" operator="out"/>
<feColorMatrix type="matrix" values="0 0 0 0 0 0 0 0 0 0 0 0 0 0 0 0 0 0 0.25 0"/>
<feBlend mode="normal" in2="BackgroundImageFix" result="effect1_dropShadow_1702_275"/>
<feBlend mode="normal" in="SourceGraphic" in2="effect1_dropShadow_1702_275" result="shape"/>
</filter>
<clipPath id="clip0_1702_275">
<rect width="10000" height="10000" fill="white" transform="translate(4)"/>
</clipPath>
</defs>
</svg>
