<svg width="10008" height="9677" viewBox="0 0 10008 9677" fill="none" xmlns="http://www.w3.org/2000/svg">
<g clip-path="url(#clip0_1702_273)" filter="url(#filter0_d_1702_273)">
<rect width="10000" height="9669" transform="translate(4)" fill="#EBE9FF"/>
<rect x="4125" y="5523" width="2784" height="1382" fill="#867CFF"/>
<path d="M4126 6906H4537.55C4537.55 6369.34 4972.57 5934.43 5509.11 5934.43V6906H5510V5522C4745.7 5522 4126 6141.59 4126 6906Z" fill="#4A3AFF"/>
<rect x="4147" y="4147" width="2762" height="1382" fill="#AFA7FF"/>
<path d="M4143 5523.58V5528H3452.5H2762L3452.5 4147L4139.46 5523.58H4143Z" fill="#D7D3FF"/>
<path d="M4130 4823.91V5497.49H4126.53L3452 4146H4130V4823.91Z" fill="#AFA7FF"/>
<path d="M1388.11 6213.91V6904.82H2762V5523H1388.11V6213.91Z" fill="#867CFF"/>
<path d="M2740.24 6904.82H2762C2762 6142.83 2145.73 5523 1388.11 5523V5544.89C2133.64 5544.89 2740.24 6154.99 2740.24 6904.82Z" fill="white"/>
<path d="M2612.75 6904.82H2634.51C2634.62 6213.58 2075.39 5651.12 1388.12 5651.12V5673.01C2063.41 5673.12 2612.75 6225.63 2612.75 6904.82Z" fill="white"/>
<path d="M2485.35 6904.82H2507.11C2507.22 6284.22 2005.15 5779.25 1388.11 5779.25V5801.13C1993.17 5801.24 2485.35 6296.27 2485.35 6904.82Z" fill="white"/>
<path d="M2357.96 6904.82H2379.73C2379.73 6354.86 1934.92 5907.48 1388.11 5907.48V5929.37C1922.94 5929.37 2357.96 6366.91 2357.96 6904.82Z" fill="white"/>
<path d="M2230.58 6904.82H2252.34C2252.34 6425.5 1864.68 6035.6 1388.11 6035.6V6057.49C1852.59 6057.49 2230.58 6437.66 2230.58 6904.82Z" fill="white"/>
<path d="M2103.19 6904.82H2124.96C2124.96 6496.13 1794.45 6163.72 1388.11 6163.72V6185.61C1782.36 6185.61 2103.19 6508.3 2103.19 6904.82Z" fill="white"/>
<path d="M1975.7 6904.82H1997.46C1997.46 6566.88 1724.11 6291.85 1388 6291.85V6313.73C1712.13 6313.84 1975.7 6578.93 1975.7 6904.82Z" fill="white"/>
<path d="M1848.3 6904.82H1870.07C1870.07 6637.52 1653.87 6419.97 1388 6419.97V6441.86C1641.89 6441.97 1848.3 6649.57 1848.3 6904.82Z" fill="white"/>
<path d="M1720.93 6904.82H1742.69C1742.69 6708.16 1583.65 6548.2 1388.11 6548.2V6570.09C1571.67 6570.09 1720.93 6720.21 1720.93 6904.82Z" fill="white"/>
<path d="M1593.54 6904.82H1615.3C1615.3 6778.8 1513.41 6676.32 1388.11 6676.32V6698.21C1501.43 6698.21 1593.54 6790.96 1593.54 6904.82Z" fill="white"/>
<path d="M1466.15 6904.82H1487.91C1487.91 6849.44 1443.18 6804.45 1388.11 6804.45V6826.34C1431.09 6826.34 1466.15 6861.6 1466.15 6904.82Z" fill="white"/>
<path d="M2762 5523H4144C3762.35 5523 3453 5833.65 3453 6216.91C3453 6600.17 3762.35 6910.82 4144 6910.82H3453H2762V5523Z" fill="#5E50FF"/>
<path d="M6916 2072.91V2763.82H5534V1382H6916V2072.91Z" fill="#867CFF"/>
<path d="M5555.89 2763.82H5534C5534 2001.83 6153.91 1382 6916 1382V1403.89C6166.07 1403.89 5555.89 2013.99 5555.89 2763.82Z" fill="#C3BDFF"/>
<path d="M5683.89 2763.7H5662C5661.89 2072.46 6224.42 1510 6915.75 1510V1531.89C6236.47 1532 5683.89 2084.51 5683.89 2763.7Z" fill="#C3BDFF"/>
<path d="M5811.89 2763.58H5790C5789.89 2142.97 6294.93 1638 6915.61 1638V1659.89C6306.98 1660 5811.89 2155.02 5811.89 2763.58Z" fill="#C3BDFF"/>
<path d="M5940.42 2763.82H5918.53C5918.53 2213.86 6365.96 1766.48 6916 1766.48V1788.37C6378.01 1788.37 5940.42 2225.91 5940.42 2763.82Z" fill="#C3BDFF"/>
<path d="M6068.56 2763.82H6046.67C6046.67 2284.5 6436.61 1894.6 6916 1894.6V1916.49C6448.77 1916.49 6068.56 2296.66 6068.56 2763.82Z" fill="#C3BDFF"/>
<path d="M6196.7 2763.82H6174.8C6174.8 2355.14 6507.26 2022.72 6916 2022.72V2044.61C6519.42 2044.61 6196.7 2367.3 6196.7 2763.82Z" fill="#C3BDFF"/>
<path d="M6324.95 2763.82H6303.05C6303.05 2425.88 6578.02 2150.85 6916.11 2150.85V2172.73C6590.07 2172.84 6324.95 2437.93 6324.95 2763.82Z" fill="#C3BDFF"/>
<path d="M6453.09 2763.82H6431.2C6431.2 2496.52 6648.67 2278.97 6916.11 2278.97V2300.86C6660.72 2300.97 6453.09 2508.57 6453.09 2763.82Z" fill="#C3BDFF"/>
<path d="M6581.22 2763.82H6559.33C6559.33 2567.16 6719.31 2407.2 6916 2407.2V2429.09C6731.36 2429.09 6581.22 2579.21 6581.22 2763.82Z" fill="#C3BDFF"/>
<path d="M6709.36 2763.82H6687.47C6687.47 2637.8 6789.96 2535.32 6916 2535.32V2557.21C6802.01 2557.21 6709.36 2649.96 6709.36 2763.82Z" fill="#C3BDFF"/>
<path d="M6837.5 2763.82H6815.61C6815.61 2708.44 6860.61 2663.45 6916 2663.45V2685.34C6872.77 2685.34 6837.5 2720.6 6837.5 2763.82Z" fill="#C3BDFF"/>
<path d="M6916 8977.91V9668.82H5534V8287H6916V8977.91Z" fill="#867CFF"/>
<path d="M5555.89 9668.82H5534C5534 8906.83 6153.91 8287 6916 8287V8308.89C6166.07 8308.89 5555.89 8918.99 5555.89 9668.82Z" fill="#C3BDFF"/>
<path d="M5683.89 9668.7H5662C5661.89 8977.46 6224.42 8415 6915.75 8415V8436.89C6236.47 8437 5683.89 8989.51 5683.89 9668.7Z" fill="#C3BDFF"/>
<path d="M5811.89 9668.58H5790C5789.89 9047.97 6294.93 8543 6915.61 8543V8564.89C6306.98 8565 5811.89 9060.02 5811.89 9668.58Z" fill="#C3BDFF"/>
<path d="M5940.42 9668.82H5918.53C5918.53 9118.86 6365.96 8671.48 6916 8671.48V8693.37C6378.01 8693.37 5940.42 9130.91 5940.42 9668.82Z" fill="#C3BDFF"/>
<path d="M6068.56 9668.82H6046.67C6046.67 9189.5 6436.61 8799.6 6916 8799.6V8821.49C6448.77 8821.49 6068.56 9201.66 6068.56 9668.82Z" fill="#C3BDFF"/>
<path d="M6196.7 9668.82H6174.8C6174.8 9260.13 6507.26 8927.72 6916 8927.72V8949.61C6519.42 8949.61 6196.7 9272.3 6196.7 9668.82Z" fill="#C3BDFF"/>
<path d="M6324.95 9668.82H6303.05C6303.05 9330.88 6578.02 9055.85 6916.11 9055.85V9077.73C6590.07 9077.84 6324.95 9342.93 6324.95 9668.82Z" fill="#C3BDFF"/>
<path d="M6453.09 9668.82H6431.2C6431.2 9401.52 6648.67 9183.97 6916.11 9183.97V9205.86C6660.72 9205.97 6453.09 9413.57 6453.09 9668.82Z" fill="#C3BDFF"/>
<path d="M6581.22 9668.82H6559.33C6559.33 9472.16 6719.31 9312.2 6916 9312.2V9334.09C6731.36 9334.09 6581.22 9484.21 6581.22 9668.82Z" fill="#C3BDFF"/>
<path d="M6709.36 9668.82H6687.47C6687.47 9542.8 6789.96 9440.32 6916 9440.32V9462.21C6802.01 9462.21 6709.36 9554.96 6709.36 9668.82Z" fill="#C3BDFF"/>
<path d="M6837.5 9668.82H6815.61C6815.61 9613.44 6860.61 9568.45 6916 9568.45V9590.34C6872.77 9590.34 6837.5 9625.6 6837.5 9668.82Z" fill="#C3BDFF"/>
<path d="M6925.89 5528.82H6904C6904 4766.83 7523.91 4147 8286 4147V4168.89C7536.07 4168.89 6925.89 4778.99 6925.89 5528.82Z" fill="#9A92FF"/>
<path d="M7053.89 5528.7H7032C7031.89 4837.46 7594.42 4275 8285.75 4275V4296.89C7606.47 4297 7053.89 4849.51 7053.89 5528.7Z" fill="#9A92FF"/>
<path d="M7181.89 5528.58H7160C7159.89 4907.97 7664.93 4403 8285.61 4403V4424.89C7676.98 4425 7181.89 4920.02 7181.89 5528.58Z" fill="#9A92FF"/>
<path d="M7310.42 5528.82H7288.53C7288.53 4978.86 7735.96 4531.48 8286 4531.48V4553.37C7748.01 4553.37 7310.42 4990.91 7310.42 5528.82Z" fill="#9A92FF"/>
<path d="M7438.56 5528.82H7416.67C7416.67 5049.5 7806.61 4659.6 8286 4659.6V4681.49C7818.77 4681.49 7438.56 5061.66 7438.56 5528.82Z" fill="#9A92FF"/>
<path d="M7566.7 5528.82H7544.8C7544.8 5120.13 7877.26 4787.72 8286 4787.72V4809.61C7889.42 4809.61 7566.7 5132.3 7566.7 5528.82Z" fill="#9A92FF"/>
<path d="M7694.95 5528.82H7673.05C7673.05 5190.88 7948.02 4915.85 8286.11 4915.85V4937.73C7960.07 4937.85 7694.95 5202.93 7694.95 5528.82Z" fill="#9A92FF"/>
<path d="M7823.09 5528.82H7801.2C7801.2 5261.52 8018.67 5043.97 8286.11 5043.97V5065.86C8030.72 5065.97 7823.09 5273.57 7823.09 5528.82Z" fill="#9A92FF"/>
<path d="M7951.22 5528.82H7929.33C7929.33 5332.16 8089.31 5172.2 8285.99 5172.2V5194.09C8101.36 5194.09 7951.22 5344.21 7951.22 5528.82Z" fill="#9A92FF"/>
<path d="M8079.36 5528.82H8057.47C8057.47 5402.8 8159.96 5300.32 8286 5300.32V5322.21C8172.01 5322.21 8079.36 5414.96 8079.36 5528.82Z" fill="#9A92FF"/>
<path d="M8207.5 5528.82H8185.61C8185.61 5473.44 8230.61 5428.45 8286 5428.45V5450.34C8242.77 5450.34 8207.5 5485.6 8207.5 5528.82Z" fill="#9A92FF"/>
<path d="M5534 2072.91V2763.82C5152.35 2763.82 4843 2454.52 4843 2072.91C4843 1691.31 5152.35 1382 5534 1382V2072.91Z" fill="#D7D3FF"/>
<path d="M4144 1382H5534C5150.14 1382 4839 1691.35 4839 2073C4839 2454.65 5150.14 2764 5534 2764H4839H4144V1382Z" fill="#5E50FF"/>
<path d="M5534 8977.91V9668.82C5152.35 9668.82 4843 9359.52 4843 8977.91C4843 8596.31 5152.35 8287 5534 8287V8977.91Z" fill="#D7D3FF"/>
<path d="M4144 8287H5534C5150.14 8287 4839 8596.35 4839 8978C4839 9359.65 5150.14 9669 5534 9669H4839H4144V8287Z" fill="#AFA7FF"/>
<rect x="4147" width="2762" height="1382" fill="#867CFF"/>
<rect x="4126" y="6905" width="2783" height="1382" fill="#5E50FF"/>
<rect x="5534" y="2764" width="4470" height="1382" fill="#867CFF"/>
<path d="M3529 2022.91V2713.82C3147.35 2713.82 2838 2404.52 2838 2022.91C2838 1641.31 3147.35 1332 3529 1332V2022.91Z" fill="#D7D3FF"/>
<path d="M3529 8927.91V9618.82C3147.35 9618.82 2838 9309.52 2838 8927.91C2838 8546.31 3147.35 8237 3529 8237V8927.91Z" fill="#D7D3FF"/>
<path d="M6916 4145.82H6505.05C6505.05 3610.01 6070.66 3175.78 5534.88 3175.78V4145.82H5534V2764C6297.2 2764 6916 3382.61 6916 4145.82Z" fill="#5E50FF"/>
<rect x="8286" y="1382" width="1718" height="1382" fill="#5E50FF"/>
<rect x="8286" y="8287" width="1718" height="1382" fill="#4A3AFF"/>
<rect x="6909" width="3095" height="1382" fill="#867CFF"/>
<rect x="6909" y="6905" width="3095" height="1382" fill="#867CFF"/>
<path d="M1386.11 690.912V1381.82H2771V0H1386.11V690.912Z" fill="#867CFF"/>
<path d="M2749.06 1381.82H2771C2771 619.831 2149.79 0 1386.11 0V21.8881C2137.61 21.8881 2749.06 631.991 2749.06 1381.82Z" fill="white"/>
<path d="M2620.55 1381.82H2642.48C2642.6 690.58 2078.89 128.123 1386.11 128.123V150.011C2066.81 150.121 2620.55 702.63 2620.55 1381.82Z" fill="white"/>
<path d="M2492.14 1381.82H2514.07C2514.18 761.219 2008.09 256.245 1386.11 256.245V278.133C1996.01 278.244 2492.14 773.268 2492.14 1381.82Z" fill="white"/>
<path d="M2363.73 1381.82H2385.67C2385.67 831.858 1937.3 384.478 1386.11 384.478V406.367C1925.22 406.367 2363.73 843.907 2363.73 1381.82Z" fill="white"/>
<path d="M2235.32 1381.82H2257.26C2257.26 902.496 1866.5 512.601 1386.11 512.601V534.489C1854.31 534.489 2235.32 914.656 2235.32 1381.82Z" fill="white"/>
<path d="M2106.92 1381.82H2128.86C2128.86 973.135 1795.71 640.724 1386.11 640.724V662.612C1783.52 662.612 2106.92 985.295 2106.92 1381.82Z" fill="white"/>
<path d="M1978.4 1381.82H2000.34C2000.34 1043.88 1724.8 768.846 1386 768.846V790.734C1712.72 790.845 1978.4 1055.93 1978.4 1381.82Z" fill="white"/>
<path d="M1849.99 1381.82H1871.93C1871.93 1114.52 1654 896.969 1386 896.969V918.857C1641.92 918.968 1849.99 1126.57 1849.99 1381.82Z" fill="white"/>
<path d="M1721.59 1381.82H1743.52C1743.52 1185.16 1583.21 1025.2 1386.11 1025.2V1047.09C1571.13 1047.09 1721.59 1197.21 1721.59 1381.82Z" fill="white"/>
<path d="M1593.18 1381.82H1615.12C1615.12 1255.8 1512.41 1153.32 1386.11 1153.32V1175.21C1500.34 1175.21 1593.18 1267.96 1593.18 1381.82Z" fill="white"/>
<path d="M1464.77 1381.82H1486.71C1486.71 1326.44 1441.61 1281.45 1386.11 1281.45V1303.34C1429.43 1303.34 1464.77 1338.6 1464.77 1381.82Z" fill="white"/>
<path d="M2778 2072.91V2763.82H4144V1382H2778V2072.91Z" fill="#867CFF"/>
<path d="M2778 8977.91V9668.82H4144V8287H2778V8977.91Z" fill="#867CFF"/>
<path d="M4150 3454.91V4154.93H5534V2754.89H4150V3454.91Z" fill="#EBE9FF"/>
<path d="M4 690.912C385.653 690.912 695 1000.22 695 1381.82C313.347 1381.82 4 1072.52 4 690.912Z" fill="#D7D3FF"/>
<path d="M695 0C1076.65 0 1386 309.307 1386 690.912C1386 1072.52 1076.65 1381.82 695 1381.82C695 1000.22 385.653 690.912 4 690.912C4 309.307 313.347 0 695 0Z" fill="#4A3AFF"/>
<path d="M4 7595.91C385.653 7595.91 695 7905.22 695 8286.82C313.347 8286.82 4 7977.52 4 7595.91Z" fill="#D7D3FF"/>
<path d="M695 6905C1076.65 6905 1386 7214.31 1386 7595.91C1386 7977.52 1076.65 8286.82 695 8286.82C695 7905.22 385.653 7595.91 4 7595.91C4 7214.31 313.347 6905 695 6905Z" fill="#867CFF"/>
<path d="M8470 6219.91C8851.65 6219.91 9161 6529.22 9161 6910.82C8779.35 6910.82 8470 6601.52 8470 6219.91Z" fill="#D7D3FF"/>
<path d="M9161 5529C9542.65 5529 9852 5838.31 9852 6219.91C9852 6601.52 9542.65 6910.82 9161 6910.82C9161 6529.22 8851.65 6219.91 8470 6219.91C8470 5838.31 8779.35 5529 9161 5529Z" fill="#5E50FF"/>
<path d="M2787.67 2763.65L2766 2763.54L2769.54 0L2791.21 0.110546L2787.67 2763.65Z" fill="#9A92FF"/>
<path d="M2923.55 2763.65L2901.88 2763.54L2905.31 0L2927.09 0.110546L2923.55 2763.65Z" fill="#9A92FF"/>
<path d="M3059.43 2763.65L3037.76 2763.54L3041.19 0L3062.97 0.110546L3059.43 2763.65Z" fill="#9A92FF"/>
<path d="M3195.3 2763.65L3173.63 2763.54L3177.06 0L3198.84 0.110546L3195.3 2763.65Z" fill="#9A92FF"/>
<path d="M3331.18 2763.65L3309.51 2763.54L3312.94 0L3334.61 0.110546L3331.18 2763.65Z" fill="#9A92FF"/>
<path d="M3467.06 2763.65L3445.39 2763.54L3448.82 0L3470.49 0.110546L3467.06 2763.65Z" fill="#9A92FF"/>
<path d="M3602.94 2763.65L3581.16 2763.54L3584.7 0L3606.37 0.110546L3602.94 2763.65Z" fill="#9A92FF"/>
<path d="M3738.82 2763.65L3717.04 2763.54L3720.57 0L3742.24 0.110546L3738.82 2763.65Z" fill="#9A92FF"/>
<path d="M3874.69 2763.65L3852.91 2763.54L3856.45 0L3878.12 0.110546L3874.69 2763.65Z" fill="#9A92FF"/>
<path d="M4010.57 2763.65L3988.79 2763.54L3992.33 0L4014 0.110546L4010.57 2763.65Z" fill="#9A92FF"/>
<path d="M4146.45 2763.65L4124.67 2763.54L4128.21 0L4149.88 0.110546L4146.45 2763.65Z" fill="#9A92FF"/>
<path d="M2787.3 9668.65L2766 9668.54L2769.48 6905L2790.77 6905.11L2787.3 9668.65Z" fill="#9A92FF"/>
<path d="M2920.83 9668.65L2899.54 9668.54L2902.9 6905L2924.31 6905.11L2920.83 9668.65Z" fill="#9A92FF"/>
<path d="M3054.36 9668.65L3033.07 9668.54L3036.43 6905L3057.84 6905.11L3054.36 9668.65Z" fill="#9A92FF"/>
<path d="M3187.9 9668.65L3166.6 9668.54L3169.97 6905L3191.37 6905.11L3187.9 9668.65Z" fill="#9A92FF"/>
<path d="M3321.43 9668.65L3300.13 9668.54L3303.5 6905L3324.8 6905.11L3321.43 9668.65Z" fill="#9A92FF"/>
<path d="M3454.96 9668.65L3433.67 9668.54L3437.04 6905L3458.33 6905.11L3454.96 9668.65Z" fill="#9A92FF"/>
<path d="M3588.5 9668.65L3567.09 9668.54L3570.57 6905L3591.87 6905.11L3588.5 9668.65Z" fill="#9A92FF"/>
<path d="M3722.03 9668.65L3700.62 9668.54L3704.1 6905L3725.4 6905.11L3722.03 9668.65Z" fill="#9A92FF"/>
<path d="M3855.56 9668.65L3834.16 9668.54L3837.63 6905L3858.93 6905.11L3855.56 9668.65Z" fill="#9A92FF"/>
<path d="M3989.1 9668.65L3967.7 9668.54L3971.17 6905L3992.47 6905.11L3989.1 9668.65Z" fill="#9A92FF"/>
<path d="M4122.63 9668.65L4101.23 9668.54L4104.7 6905L4126 6905.11L4122.63 9668.65Z" fill="#9A92FF"/>
<path d="M4147.06 5529L4125 5528.89L4128.6 2754.92L4150.67 2755.03L4147.06 5529Z" fill="#9A92FF"/>
<path d="M4285.41 5529L4263.35 5528.89L4266.84 2754.92L4289.01 2755.03L4285.41 5529Z" fill="#9A92FF"/>
<path d="M4423.75 5529L4401.69 5528.89L4405.18 2754.92L4427.36 2755.03L4423.75 5529Z" fill="#9A92FF"/>
<path d="M4562.09 5529L4540.03 5528.89L4543.52 2754.92L4565.7 2755.03L4562.09 5529Z" fill="#9A92FF"/>
<path d="M4700.44 5529L4678.38 5528.89L4681.86 2754.92L4703.93 2755.03L4700.44 5529Z" fill="#9A92FF"/>
<path d="M4838.79 5529L4816.72 5528.89L4820.21 2754.92L4842.28 2755.03L4838.79 5529Z" fill="#9A92FF"/>
<path d="M4977.13 5529L4954.96 5528.89L4958.56 2754.92L4980.62 2755.03L4977.13 5529Z" fill="#9A92FF"/>
<path d="M5115.48 5529L5093.3 5528.89L5096.9 2754.92L5118.97 2755.03L5115.48 5529Z" fill="#9A92FF"/>
<path d="M5253.82 5529L5231.64 5528.89L5235.25 2754.92L5257.31 2755.03L5253.82 5529Z" fill="#9A92FF"/>
<path d="M5392.16 5529L5369.99 5528.89L5373.59 2754.92L5395.65 2755.03L5392.16 5529Z" fill="#9A92FF"/>
<path d="M5530.51 5529L5508.33 5528.89L5511.93 2754.92L5534 2755.03L5530.51 5529Z" fill="#9A92FF"/>
<path d="M6937.67 2763.65L6916 2763.54L6919.54 0L6941.21 0.110546L6937.67 2763.65Z" fill="#AFA7FF"/>
<path d="M7073.55 2763.65L7051.88 2763.54L7055.31 0L7077.09 0.110546L7073.55 2763.65Z" fill="#AFA7FF"/>
<path d="M7209.43 2763.65L7187.76 2763.54L7191.19 0L7212.97 0.110546L7209.43 2763.65Z" fill="#AFA7FF"/>
<path d="M7345.3 2763.65L7323.63 2763.54L7327.06 0L7348.84 0.110546L7345.3 2763.65Z" fill="#AFA7FF"/>
<path d="M7481.18 2763.65L7459.51 2763.54L7462.94 0L7484.61 0.110546L7481.18 2763.65Z" fill="#AFA7FF"/>
<path d="M7617.06 2763.65L7595.39 2763.54L7598.82 0L7620.49 0.110546L7617.06 2763.65Z" fill="#AFA7FF"/>
<path d="M7752.94 2763.65L7731.16 2763.54L7734.69 0L7756.36 0.110546L7752.94 2763.65Z" fill="#AFA7FF"/>
<path d="M7888.82 2763.65L7867.04 2763.54L7870.58 0L7892.25 0.110546L7888.82 2763.65Z" fill="#AFA7FF"/>
<path d="M8024.69 2763.65L8002.91 2763.54L8006.45 0L8028.12 0.110546L8024.69 2763.65Z" fill="#AFA7FF"/>
<path d="M8160.58 2763.65L8138.8 2763.54L8142.33 0L8164 0.110546L8160.58 2763.65Z" fill="#AFA7FF"/>
<path d="M8296.45 2763.65L8274.67 2763.54L8278.21 0L8299.88 0.110546L8296.45 2763.65Z" fill="#AFA7FF"/>
<path d="M6937.67 9668.65L6916 9668.54L6919.54 6905L6941.21 6905.11L6937.67 9668.65Z" fill="#AFA7FF"/>
<path d="M7073.55 9668.65L7051.88 9668.54L7055.31 6905L7077.09 6905.11L7073.55 9668.65Z" fill="#AFA7FF"/>
<path d="M7209.43 9668.65L7187.76 9668.54L7191.19 6905L7212.97 6905.11L7209.43 9668.65Z" fill="#AFA7FF"/>
<path d="M7345.3 9668.65L7323.63 9668.54L7327.06 6905L7348.84 6905.11L7345.3 9668.65Z" fill="#AFA7FF"/>
<path d="M7481.18 9668.65L7459.51 9668.54L7462.94 6905L7484.61 6905.11L7481.18 9668.65Z" fill="#AFA7FF"/>
<path d="M7617.06 9668.65L7595.39 9668.54L7598.82 6905L7620.49 6905.11L7617.06 9668.65Z" fill="#AFA7FF"/>
<path d="M7752.94 9668.65L7731.16 9668.54L7734.69 6905L7756.36 6905.11L7752.94 9668.65Z" fill="#AFA7FF"/>
<path d="M7888.82 9668.65L7867.04 9668.54L7870.58 6905L7892.25 6905.11L7888.82 9668.65Z" fill="#AFA7FF"/>
<path d="M8024.69 9668.65L8002.91 9668.54L8006.45 6905L8028.12 6905.11L8024.69 9668.65Z" fill="#AFA7FF"/>
<path d="M8160.58 9668.65L8138.8 9668.54L8142.33 6905L8164 6905.11L8160.58 9668.65Z" fill="#AFA7FF"/>
<path d="M8296.45 9668.65L8274.67 9668.54L8278.21 6905L8299.88 6905.11L8296.45 9668.65Z" fill="#AFA7FF"/>
<path d="M4296.91 691L4297.13 1382L3606.21 1382.22C3606.1 1000.56 3915.31 691.119 4296.91 691Z" fill="#C3BDFF"/>
<path d="M4296.91 7596L4297.13 8287L3606.21 8287.22C3606.1 7905.56 3915.31 7596.12 4296.91 7596Z" fill="#C3BDFF"/>
<path d="M5751.91 3455L5752.13 4146L5061.21 4146.22C5061.1 3764.56 5370.31 3455.12 5751.91 3455Z" fill="#C3BDFF"/>
<path d="M3606.21 1382.22L4297.13 1382L4297.34 2073C3915.74 2073.12 3606.33 1763.87 3606.21 1382.22Z" fill="#C3BDFF"/>
<path d="M3606.21 8287.22L4297.13 8287L4297.34 8978C3915.74 8978.12 3606.33 8668.87 3606.21 8287.22Z" fill="#C3BDFF"/>
<path d="M5061.21 4146.22L5752.13 4146L5752.34 4837C5370.74 4837.12 5061.33 4527.87 5061.21 4146.22Z" fill="#C3BDFF"/>
<path d="M5534 1381.82V0H6225C6225 381.604 6534.35 690.912 6916 690.912C6534.35 690.912 6225 1000.22 6225 1381.82H5534Z" fill="#EBE9FF"/>
<path d="M6916 6905V8286.82H6225C6225 7905.22 5915.65 7595.91 5534 7595.91C5915.65 7595.91 6225 7286.6 6225 6905H6916Z" fill="#EBE9FF"/>
<path d="M5510 6905V5527H6206C6206 5907.55 6517.59 6216 6902 6216C6517.59 6216 6206 6524.45 6206 6905H5510Z" fill="#EBE9FF"/>
<path d="M5533.71 746.295V724.517C5552.17 724.517 5567.21 709.483 5567.21 691.022C5567.21 672.561 5552.17 657.637 5533.71 657.637V635.86C5564.22 635.86 5588.99 660.622 5588.99 691.022C5588.99 721.533 5564.22 746.295 5533.71 746.295Z" fill="#4A3AFF"/>
<path d="M5533.71 873.423V851.645C5622.38 851.645 5694.35 779.68 5694.35 691.022C5694.35 602.475 5622.38 530.509 5533.71 530.509V508.732C5634.32 508.732 5716.13 590.536 5716.13 691.022C5716.13 791.619 5634.32 873.423 5533.71 873.423Z" fill="#4A3AFF"/>
<path d="M5533.71 1000.55V978.773C5692.47 978.773 5821.5 849.766 5821.5 691.022C5821.5 532.389 5692.47 403.382 5533.71 403.382V381.604C5704.41 381.604 5843.28 520.45 5843.28 691.022C5843.28 861.705 5704.41 1000.55 5533.71 1000.55Z" fill="#4A3AFF"/>
<path d="M6224.71 691.022C6224.71 1072.07 5914.81 1381.93 5533.71 1381.93V1360.27C5902.76 1360.27 6203.04 1060.02 6203.04 691.022C6203.04 322.13 5902.76 21.8879 5533.71 21.8879V0.110352C5914.81 0.110352 6224.71 310.081 6224.71 691.022Z" fill="#4A3AFF"/>
<path d="M5533.71 1127.68V1105.9C5762.57 1105.9 5948.64 919.852 5948.64 691.022C5948.64 462.302 5762.57 276.254 5533.71 276.254V254.476C5774.51 254.476 5970.42 450.253 5970.42 691.022C5970.42 931.791 5774.51 1127.68 5533.71 1127.68Z" fill="#4A3AFF"/>
<path d="M5533.71 1254.81V1233.14C5832.66 1233.14 6075.78 989.938 6075.78 691.022C6075.78 392.216 5832.66 149.016 5533.71 149.016V127.349C5844.71 127.349 6097.56 380.167 6097.56 691.022C6097.56 1001.99 5844.71 1254.81 5533.71 1254.81Z" fill="#4A3AFF"/>
<path d="M5507.95 6271.58V6249.88C5526.53 6249.88 5541.67 6234.9 5541.67 6216.5C5541.67 6198.1 5526.53 6183.23 5507.95 6183.23V6161.53C5538.66 6161.53 5563.59 6186.21 5563.59 6216.5C5563.59 6246.9 5538.66 6271.58 5507.95 6271.58Z" fill="#867CFF"/>
<path d="M5507.95 6398.26V6376.56C5597.2 6376.56 5669.65 6304.85 5669.65 6216.5C5669.65 6128.26 5597.2 6056.55 5507.95 6056.55V6034.85C5609.22 6034.85 5691.57 6116.36 5691.57 6216.5C5691.57 6316.75 5609.22 6398.26 5507.95 6398.26Z" fill="#867CFF"/>
<path d="M5507.95 6524.95V6503.25C5667.76 6503.25 5797.63 6374.69 5797.63 6216.5C5797.63 6058.42 5667.76 5929.86 5507.95 5929.86V5908.16C5679.77 5908.16 5819.55 6046.52 5819.55 6216.5C5819.55 6386.59 5679.77 6524.95 5507.95 6524.95Z" fill="#867CFF"/>
<path d="M6203.5 6216.5C6203.5 6596.22 5891.56 6905 5507.95 6905V6883.41C5879.43 6883.41 6181.68 6584.21 6181.68 6216.5C6181.68 5848.9 5879.43 5549.7 5507.95 5549.7V5528C5891.56 5528 6203.5 5836.89 6203.5 6216.5Z" fill="#867CFF"/>
<path d="M5507.95 6651.63V6629.93C5738.31 6629.93 5925.61 6444.53 5925.61 6216.5C5925.61 5988.58 5738.31 5803.18 5507.95 5803.18V5781.48C5750.33 5781.48 5947.53 5976.57 5947.53 6216.5C5947.53 6456.43 5750.33 6651.63 5507.95 6651.63Z" fill="#867CFF"/>
<path d="M5507.95 6778.32V6756.72C5808.87 6756.72 6053.59 6514.37 6053.59 6216.5C6053.59 5918.74 5808.87 5676.39 5507.95 5676.39V5654.79C5821 5654.79 6075.52 5906.73 6075.52 6216.5C6075.52 6526.38 5821 6778.32 5507.95 6778.32Z" fill="#867CFF"/>
<path d="M8275 690.912V0C8656.65 0 8966 309.307 8966 690.912C8966 1072.52 8656.65 1381.82 8275 1381.82V690.912Z" fill="#EBE9FF"/>
<path d="M8275 7595.91V6905C8656.65 6905 8966 7214.31 8966 7595.91C8966 7977.52 8656.65 8286.82 8275 8286.82V7595.91Z" fill="#EBE9FF"/>
<path d="M8286 3454.91V2764C8667.65 2764 8977 3073.31 8977 3454.91C8977 3836.52 8667.65 4145.82 8286 4145.82V3454.91Z" fill="#EBE9FF"/>
<path d="M10004 690.912V0C9622.35 0 9313 309.307 9313 690.912C9313 1072.52 9622.35 1381.82 10004 1381.82V690.912Z" fill="#EBE9FF"/>
<path d="M10004 7595.91V6905C9622.35 6905 9313 7214.31 9313 7595.91C9313 7977.52 9622.35 8286.82 10004 8286.82V7595.91Z" fill="#EBE9FF"/>
<path d="M10004 3454.91V2764C9622.35 2764 9313 3073.31 9313 3454.91C9313 3836.52 9622.35 4145.82 10004 4145.82V3454.91Z" fill="#EBE9FF"/>
<path d="M2768 2072.91V2763.82C2386.35 2763.82 2077 2454.52 2077 2072.91C2077 1691.31 2386.35 1382 2768 1382V2072.91Z" fill="#C3BDFF"/>
<path d="M1386 1382H2768C2386.35 1382 2077 1691.31 2077 2072.91C2077 2454.52 2386.35 2763.82 2768 2763.82H2077H1386V1382Z" fill="#AFA7FF"/>
<path d="M2768 8977.91V9668.82C2386.35 9668.82 2077 9359.52 2077 8977.91C2077 8596.31 2386.35 8287 2768 8287V8977.91Z" fill="#C3BDFF"/>
<path d="M1386 8287H2768C2386.35 8287 2077 8596.31 2077 8977.91C2077 9359.52 2386.35 9668.82 2768 9668.82H2077H1386V8287Z" fill="#5E50FF"/>
<path d="M2764.18 4834.5V5523C2383.86 5523 2075.59 5214.77 2075.59 4834.5C2075.59 4454.23 2383.86 4146 2764.18 4146V4834.5Z" fill="#C3BDFF"/>
<path d="M1387 4146H2764.18C2383.86 4146 2075.59 4454.23 2075.59 4834.5C2075.59 5214.77 2383.86 5523 2764.18 5523H2075.59H1387V4146Z" fill="#5E50FF"/>
<path d="M2762 2764H4144C3762.35 2764 3453 3073.31 3453 3454.91C3453 3836.52 3762.35 4145.82 4144 4145.82H3453H2762V2764Z" fill="#5E50FF"/>
<path d="M1386 2072.91V2763.82H695C695 2382.22 1004.35 2072.91 1386 2072.91Z" fill="#867CFF"/>
<path d="M1386 1382V2072.91C1004.35 2072.91 695 1763.6 695 1382H1386Z" fill="#867CFF"/>
<path d="M4 1382H695C695 1763.6 385.653 2072.91 4 2072.91V1382Z" fill="#867CFF"/>
<path d="M695 2763.82H4V2072.91C385.653 2072.91 695 2382.22 695 2763.82Z" fill="#867CFF"/>
<path d="M1386 8977.91V9668.82H695C695 9287.22 1004.35 8977.91 1386 8977.91Z" fill="#867CFF"/>
<path d="M1386 8287V8977.91C1004.35 8977.91 695 8668.6 695 8287H1386Z" fill="#867CFF"/>
<path d="M4 8287H695C695 8668.6 385.653 8977.91 4 8977.91V8287Z" fill="#867CFF"/>
<path d="M695 9668.82H4V8977.91C385.653 8977.91 695 9287.22 695 9668.82Z" fill="#867CFF"/>
<path d="M1386 4836.91V5527.82H695C695 5146.22 1004.35 4836.91 1386 4836.91Z" fill="#867CFF"/>
<path d="M1386 4146V4836.91C1004.35 4836.91 695 4527.6 695 4146H1386Z" fill="#867CFF"/>
<path d="M4 4146H695C695 4527.6 385.653 4836.91 4 4836.91V4146Z" fill="#867CFF"/>
<path d="M695 5527.82H4V4836.91C385.653 4836.91 695 5146.22 695 5527.82Z" fill="#867CFF"/>
<path d="M9144.5 2747C8767.54 2747 8462 2441.46 8462 2064.5C8462 1687.54 8767.54 1382 9144.5 1382C9144.5 1758.96 9450.04 2064.5 9827 2064.5C9827 2441.46 9521.46 2747 9144.5 2747Z" fill="#D7D3FF"/>
<path d="M9144.5 9652C8767.54 9652 8462 9346.46 8462 8969.5C8462 8592.54 8767.54 8287 9144.5 8287C9144.5 8663.96 9450.04 8969.5 9827 8969.5C9827 9346.46 9521.46 9652 9144.5 9652Z" fill="#D7D3FF"/>
<path d="M1386 2764V4145.82H695C695 3764.22 385.653 3454.91 4 3454.91C385.653 3454.91 695 3145.6 695 2764H1386Z" fill="#AFA7FF"/>
<path d="M10004 4141V5522.82H9313C9313 5141.22 9003.65 4831.91 8622 4831.91C9003.65 4831.91 9313 4522.6 9313 4141H10004Z" fill="#AFA7FF"/>
<path d="M2769.88 3454.91V4145.82H2078.88H1387.88V4141.4V3454.91V2764H2078.88H2769.88V3454.91Z" fill="#867CFF"/>
<path d="M1559.69 3318.39L1386.77 3591.44H1732.61L1559.69 3318.39Z" fill="#EBE9FF"/>
<path d="M1905.41 3318.39L1732.61 3591.44H2078.33L1905.41 3318.39Z" fill="#EBE9FF"/>
<path d="M2251.24 3318.39L2078.33 3591.44H2424.16L2251.24 3318.39Z" fill="#EBE9FF"/>
<path d="M2596.97 3318.39L2424.16 3591.44H2769.88L2596.97 3318.39Z" fill="#EBE9FF"/>
<path d="M1559.69 3037.05L1386.77 3309.99H1732.61L1559.69 3037.05Z" fill="#EBE9FF"/>
<path d="M1905.41 3037.05L1732.61 3309.99H2078.33L1905.41 3037.05Z" fill="#EBE9FF"/>
<path d="M2251.24 3037.05L2078.33 3309.99H2424.16L2251.24 3037.05Z" fill="#EBE9FF"/>
<path d="M2596.97 3037.05L2424.16 3309.99H2769.88L2596.97 3037.05Z" fill="#EBE9FF"/>
<path d="M1559.69 3872.77L1386.77 4145.82H1732.61L1559.69 3872.77Z" fill="#EBE9FF"/>
<path d="M1905.41 3872.77L1732.61 4145.82H2078.33L1905.41 3872.77Z" fill="#EBE9FF"/>
<path d="M2251.24 3872.77L2078.33 4145.82H2424.16L2251.24 3872.77Z" fill="#EBE9FF"/>
<path d="M2596.96 3872.77L2424.16 4145.82H2769.88L2596.96 3872.77Z" fill="#EBE9FF"/>
<path d="M1559.69 3591.44L1386.77 3864.37H1732.61L1559.69 3591.44Z" fill="#EBE9FF"/>
<path d="M1905.41 3591.44L1732.61 3864.37H2078.33L1905.41 3591.44Z" fill="#EBE9FF"/>
<path d="M2251.24 3591.44L2078.33 3864.37H2424.16L2251.24 3591.44Z" fill="#EBE9FF"/>
<path d="M2596.96 3591.44L2424.16 3864.37H2769.88L2596.96 3591.44Z" fill="#EBE9FF"/>
<path d="M1558.92 2764L1386 3037.05H1731.83L1558.92 2764Z" fill="#EBE9FF"/>
<path d="M1904.64 2764L1731.83 3037.05H2077.55L1904.64 2764Z" fill="#EBE9FF"/>
<path d="M2250.47 2764L2077.55 3037.05H2423.28L2250.47 2764Z" fill="#EBE9FF"/>
<path d="M2596.19 2764L2423.27 3037.05H2769.11L2596.19 2764Z" fill="#EBE9FF"/>
<path d="M2765.99 7595.91V8284.89H2076.93H1387.87V8280.48V7595.91V6906.94H2076.93H2765.99V7595.91Z" fill="#867CFF"/>
<path d="M1559.2 7459.77L1386.77 7732.05H1731.64L1559.2 7459.77Z" fill="#EBE9FF"/>
<path d="M1903.95 7459.77L1731.63 7732.05H2076.38L1903.95 7459.77Z" fill="#EBE9FF"/>
<path d="M2248.82 7459.77L2076.39 7732.05H2421.25L2248.82 7459.77Z" fill="#EBE9FF"/>
<path d="M2593.57 7459.77L2421.25 7732.05H2766L2593.57 7459.77Z" fill="#EBE9FF"/>
<path d="M1559.2 7179.22L1386.77 7451.39H1731.64L1559.2 7179.22Z" fill="#EBE9FF"/>
<path d="M1903.95 7179.22L1731.63 7451.39H2076.38L1903.95 7179.22Z" fill="#EBE9FF"/>
<path d="M2248.82 7179.22L2076.39 7451.39H2421.25L2248.82 7179.22Z" fill="#EBE9FF"/>
<path d="M2593.57 7179.22L2421.25 7451.39H2766L2593.57 7179.22Z" fill="#EBE9FF"/>
<path d="M1559.2 8012.6L1386.77 8284.89H1731.63L1559.2 8012.6Z" fill="#EBE9FF"/>
<path d="M1903.95 8012.6L1731.63 8284.89H2076.38L1903.95 8012.6Z" fill="#EBE9FF"/>
<path d="M2248.81 8012.6L2076.38 8284.89H2421.24L2248.81 8012.6Z" fill="#EBE9FF"/>
<path d="M2593.56 8012.6L2421.24 8284.89H2765.99L2593.56 8012.6Z" fill="#EBE9FF"/>
<path d="M1559.2 7732.05L1386.77 8004.22H1731.63L1559.2 7732.05Z" fill="#EBE9FF"/>
<path d="M1903.95 7732.05L1731.63 8004.22H2076.38L1903.95 7732.05Z" fill="#EBE9FF"/>
<path d="M2248.81 7732.05L2076.38 8004.22H2421.24L2248.81 7732.05Z" fill="#EBE9FF"/>
<path d="M2593.56 7732.05L2421.24 8004.22H2765.99L2593.56 7732.05Z" fill="#EBE9FF"/>
<path d="M1558.43 6906.94L1386 7179.22H1730.86L1558.43 6906.94Z" fill="#EBE9FF"/>
<path d="M1903.18 6906.94L1730.86 7179.22H2075.61L1903.18 6906.94Z" fill="#EBE9FF"/>
<path d="M2248.04 6906.94L2075.61 7179.22H2420.36L2248.04 6906.94Z" fill="#EBE9FF"/>
<path d="M2592.79 6906.94L2420.36 7179.22H2765.23L2592.79 6906.94Z" fill="#EBE9FF"/>
<path d="M8292.88 6213.91V6904.82H7601.88H6910.88V6900.4V6213.91V5523H7601.88H8292.88V6213.91Z" fill="#867CFF"/>
<path d="M7082.69 6077.39L6909.77 6350.44H7255.61L7082.69 6077.39Z" fill="#EBE9FF"/>
<path d="M7428.41 6077.39L7255.61 6350.44H7601.33L7428.41 6077.39Z" fill="#EBE9FF"/>
<path d="M7774.24 6077.39L7601.33 6350.44H7947.16L7774.24 6077.39Z" fill="#EBE9FF"/>
<path d="M8119.96 6077.39L7947.16 6350.44H8292.88L8119.96 6077.39Z" fill="#EBE9FF"/>
<path d="M7082.69 5796.05L6909.77 6068.99H7255.61L7082.69 5796.05Z" fill="#EBE9FF"/>
<path d="M7428.41 5796.05L7255.61 6068.99H7601.33L7428.41 5796.05Z" fill="#EBE9FF"/>
<path d="M7774.24 5796.05L7601.33 6068.99H7947.16L7774.24 5796.05Z" fill="#EBE9FF"/>
<path d="M8119.96 5796.05L7947.16 6068.99H8292.88L8119.96 5796.05Z" fill="#EBE9FF"/>
<path d="M7082.69 6631.77L6909.77 6904.82H7255.61L7082.69 6631.77Z" fill="#EBE9FF"/>
<path d="M7428.41 6631.77L7255.61 6904.82H7601.33L7428.41 6631.77Z" fill="#EBE9FF"/>
<path d="M7774.24 6631.77L7601.33 6904.82H7947.16L7774.24 6631.77Z" fill="#EBE9FF"/>
<path d="M8119.96 6631.77L7947.16 6904.82H8292.88L8119.96 6631.77Z" fill="#EBE9FF"/>
<path d="M7082.69 6350.44L6909.77 6623.37H7255.61L7082.69 6350.44Z" fill="#EBE9FF"/>
<path d="M7428.41 6350.44L7255.61 6623.37H7601.33L7428.41 6350.44Z" fill="#EBE9FF"/>
<path d="M7774.24 6350.44L7601.33 6623.37H7947.16L7774.24 6350.44Z" fill="#EBE9FF"/>
<path d="M8119.96 6350.44L7947.16 6623.37H8292.88L8119.96 6350.44Z" fill="#EBE9FF"/>
<path d="M7081.92 5523L6909 5796.05H7254.83L7081.92 5523Z" fill="#EBE9FF"/>
<path d="M7427.64 5523L7254.83 5796.05H7600.55L7427.64 5523Z" fill="#EBE9FF"/>
<path d="M7773.47 5523L7600.55 5796.05H7946.28L7773.47 5523Z" fill="#EBE9FF"/>
<path d="M8119.19 5523L7946.27 5796.05H8292.11L8119.19 5523Z" fill="#EBE9FF"/>
<path d="M8286 3454.91V4145.82C7904.35 4145.82 7595 3836.52 7595 3454.91C7595 3073.31 7904.35 2764 8286 2764V3454.91Z" fill="#D7D3FF"/>
<path d="M697 6910.82C1078.63 6910.82 1388 6601.49 1388 6219.91C1388 5838.33 1078.63 5529 697 5529C315.371 5529 6 5838.33 6 6219.91C6 6601.49 315.371 6910.82 697 6910.82Z" fill="#AFA7FF"/>
</g>
<defs>
<filter id="filter0_d_1702_273" x="0" y="0" width="10008" height="9677" filterUnits="userSpaceOnUse" color-interpolation-filters="sRGB">
<feFlood flood-opacity="0" result="BackgroundImageFix"/>
<feColorMatrix in="SourceAlpha" type="matrix" values="0 0 0 0 0 0 0 0 0 0 0 0 0 0 0 0 0 0 127 0" result="hardAlpha"/>
<feOffset dy="4"/>
<feGaussianBlur stdDeviation="2"/>
<feComposite in2="hardAlpha" operator="out"/>
<feColorMatrix type="matrix" values="0 0 0 0 0 0 0 0 0 0 0 0 0 0 0 0 0 0 0.25 0"/>
<feBlend mode="normal" in2="BackgroundImageFix" result="effect1_dropShadow_1702_273"/>
<feBlend mode="normal" in="SourceGraphic" in2="effect1_dropShadow_1702_273" result="shape"/>
</filter>
<clipPath id="clip0_1702_273">
<rect width="10000" height="9669" fill="white" transform="translate(4)"/>
</clipPath>
</defs>
</svg>
