<svg width="75" height="75" viewBox="0 0 75 75" fill="none" xmlns="http://www.w3.org/2000/svg">
<path fill-rule="evenodd" clip-rule="evenodd" d="M42.0711 34.4441L64.7734 11.7418L63.2582 10.2266L40.5459 32.9389L52.8375 3.26218L50.8577 2.44219L38.5684 32.1133V0H36.4256V32.1133L24.1363 2.44219L22.1565 3.26218L34.4441 32.9286L11.7418 10.2266L10.2266 11.7418L32.9286 34.4439L3.26218 22.1565L2.44219 24.1363L32.1133 36.4256H0V38.5684H32.1133L2.44219 50.8577L3.26218 52.8375L32.9389 40.5459L10.2266 63.2582L11.7418 64.7734L34.4441 42.0711L22.1565 71.7379L24.1363 72.5578L36.4256 42.8867V75H38.5684V42.8867L50.8577 72.5578L52.8375 71.7379L40.5459 42.0611L63.2582 64.7734L64.7734 63.2582L42.0611 40.5459L71.7379 52.8375L72.5578 50.8577L42.8867 38.5684H75V36.4256H42.8867L72.5578 24.1363L71.7379 22.1565L42.0711 34.4441Z" fill="#4148FF"/>
</svg>
