<svg width="75" height="75" viewBox="0 0 75 75" fill="none" xmlns="http://www.w3.org/2000/svg">
<path d="M4.68752 18.1758C4.84175 18.1767 4.99463 18.1471 5.13741 18.0888C5.28019 18.0305 5.41005 17.9445 5.51955 17.8359L17.836 5.51952C17.9452 5.41026 18.0319 5.28054 18.091 5.13778C18.1502 4.99502 18.1806 4.84201 18.1806 4.68749C18.1806 4.53297 18.1502 4.37996 18.091 4.2372C18.0319 4.09444 17.9452 3.96472 17.836 3.85546C17.7267 3.74619 17.597 3.65952 17.4542 3.60039C17.3115 3.54126 17.1584 3.51082 17.0039 3.51082C16.6919 3.51082 16.3926 3.63479 16.1719 3.85546L3.85549 16.1719C3.74565 16.2808 3.65847 16.4104 3.59898 16.5532C3.53948 16.696 3.50885 16.8492 3.50885 17.0039C3.50885 17.1586 3.53948 17.3118 3.59898 17.4546C3.65847 17.5974 3.74565 17.727 3.85549 17.8359C3.96499 17.9445 4.09485 18.0305 4.23763 18.0888C4.38041 18.1471 4.53329 18.1767 4.68752 18.1758ZM4.68752 31.5117C4.84175 31.5126 4.99463 31.483 5.13741 31.4247C5.28019 31.3664 5.41005 31.2805 5.51955 31.1719L31.1719 5.51952C31.2812 5.41026 31.3678 5.28054 31.427 5.13778C31.4861 4.99502 31.5165 4.84201 31.5165 4.68749C31.5165 4.53297 31.4861 4.37996 31.427 4.2372C31.3678 4.09444 31.2812 3.96472 31.1719 3.85546C31.0626 3.74619 30.9329 3.65952 30.7902 3.60039C30.6474 3.54126 30.4944 3.51082 30.3399 3.51082C30.1853 3.51082 30.0323 3.54126 29.8896 3.60039C29.7468 3.65952 29.6171 3.74619 29.5078 3.85546L3.85549 29.5078C3.74565 29.6167 3.65847 29.7464 3.59898 29.8892C3.53948 30.032 3.50885 30.1851 3.50885 30.3398C3.50885 30.4945 3.53948 30.6477 3.59898 30.7905C3.65847 30.9333 3.74565 31.0629 3.85549 31.1719C3.96499 31.2805 4.09485 31.3664 4.23763 31.4247C4.38041 31.483 4.53329 31.5126 4.68752 31.5117ZM4.68752 44.8242C4.99244 44.8386 5.29095 44.7335 5.51955 44.5312L44.5313 5.51952C44.7519 5.29885 44.8759 4.99956 44.8759 4.68749C44.8759 4.37542 44.7519 4.07613 44.5313 3.85546C44.3106 3.63479 44.0113 3.51082 43.6992 3.51082C43.3872 3.51082 43.0879 3.63479 42.8672 3.85546L3.85549 42.8203C3.74565 42.9292 3.65847 43.0589 3.59898 43.2017C3.53948 43.3445 3.50885 43.4976 3.50885 43.6523C3.50885 43.807 3.53948 43.9602 3.59898 44.103C3.65847 44.2458 3.74565 44.3754 3.85549 44.4844C3.96499 44.593 4.09485 44.6789 4.23763 44.7372C4.38041 44.7955 4.53329 44.8251 4.68752 44.8242ZM4.68752 58.1601C4.84175 58.161 4.99463 58.1315 5.13741 58.0732C5.28019 58.0148 5.41005 57.9289 5.51955 57.8203L57.8203 5.51952C57.9296 5.41026 58.0163 5.28054 58.0754 5.13778C58.1345 4.99502 58.165 4.84201 58.165 4.68749C58.165 4.53297 58.1345 4.37996 58.0754 4.2372C58.0163 4.09444 57.9296 3.96472 57.8203 3.85546C57.7111 3.74619 57.5814 3.65952 57.4386 3.60039C57.2958 3.54126 57.1428 3.51082 56.9883 3.51082C56.8338 3.51082 56.6808 3.54126 56.538 3.60039C56.3952 3.65952 56.2655 3.74619 56.1563 3.85546L3.85549 56.1562C3.74565 56.2652 3.65847 56.3948 3.59898 56.5376C3.53948 56.6804 3.50885 56.8336 3.50885 56.9883C3.50885 57.143 3.53948 57.2961 3.59898 57.4389C3.65847 57.5817 3.74565 57.7114 3.85549 57.8203C3.96499 57.9289 4.09485 58.0148 4.23763 58.0732C4.38041 58.1315 4.53329 58.161 4.68752 58.1601ZM71.1445 3.85546C71.0356 3.74562 70.906 3.65844 70.7632 3.59894C70.6204 3.53945 70.4672 3.50882 70.3125 3.50882C70.1578 3.50882 70.0047 3.53945 69.8618 3.59894C69.719 3.65844 69.5894 3.74562 69.4805 3.85546L3.85549 69.4805C3.74565 69.5894 3.65847 69.719 3.59898 69.8618C3.53948 70.0046 3.50885 70.1578 3.50885 70.3125C3.50885 70.4672 3.53948 70.6204 3.59898 70.7632C3.65847 70.906 3.74565 71.0356 3.85549 71.1445C3.96443 71.2544 4.09404 71.3415 4.23684 71.401C4.37965 71.4605 4.53282 71.4912 4.68752 71.4912C4.84222 71.4912 4.99539 71.4605 5.1382 71.401C5.281 71.3415 5.41061 71.2544 5.51955 71.1445L71.1445 5.51952C71.2544 5.41058 71.3416 5.28097 71.4011 5.13817C71.4606 4.99536 71.4912 4.84219 71.4912 4.68749C71.4912 4.53279 71.4606 4.37962 71.4011 4.23681C71.3416 4.09401 71.2544 3.9644 71.1445 3.85546ZM69.4805 17.1797L17.1797 69.4805C17.0699 69.5894 16.9827 69.719 16.9232 69.8618C16.8637 70.0046 16.8331 70.1578 16.8331 70.3125C16.8331 70.4672 16.8637 70.6204 16.9232 70.7632C16.9827 70.906 17.0699 71.0356 17.1797 71.1445C17.2886 71.2544 17.4183 71.3415 17.5611 71.401C17.7039 71.4605 17.857 71.4912 18.0117 71.4912C18.1664 71.4912 18.3196 71.4605 18.4624 71.401C18.6052 71.3415 18.7348 71.2544 18.8438 71.1445L71.1445 18.8437C71.3652 18.6231 71.4892 18.3238 71.4892 18.0117C71.4892 17.6996 71.3652 17.4003 71.1445 17.1797C70.9239 16.959 70.6246 16.835 70.3125 16.835C70.0005 16.835 69.7012 16.959 69.4805 17.1797ZM69.4805 30.4687L30.4688 69.4805C30.3589 69.5894 30.2718 69.719 30.2123 69.8618C30.1528 70.0046 30.1221 70.1578 30.1221 70.3125C30.1221 70.4672 30.1528 70.6204 30.2123 70.7632C30.2718 70.906 30.3589 71.0356 30.4688 71.1445C30.5777 71.2544 30.7073 71.3415 30.8501 71.401C30.9929 71.4605 31.1461 71.4912 31.3008 71.4912C31.4555 71.4912 31.6087 71.4605 31.7515 71.401C31.8943 71.3415 32.0239 71.2544 32.1328 71.1445L71.1445 32.1797C71.3714 31.959 71.5014 31.6572 71.5058 31.3408C71.5102 31.0243 71.3887 30.7191 71.168 30.4922C70.9473 30.2653 70.6456 30.1354 70.3291 30.131C70.0126 30.1266 69.7074 30.2481 69.4805 30.4687ZM69.4805 43.8281L43.8281 69.4805C43.7183 69.5894 43.6311 69.719 43.5716 69.8618C43.5121 70.0046 43.4815 70.1578 43.4815 70.3125C43.4815 70.4672 43.5121 70.6204 43.5716 70.7632C43.6311 70.906 43.7183 71.0356 43.8281 71.1445C43.9371 71.2544 44.0667 71.3415 44.2095 71.401C44.3523 71.4605 44.5055 71.4912 44.6602 71.4912C44.8149 71.4912 44.968 71.4605 45.1109 71.401C45.2537 71.3415 45.3833 71.2544 45.4922 71.1445L71.1445 45.4922C71.3652 45.2715 71.4892 44.9722 71.4892 44.6601C71.4892 44.3481 71.3652 44.0488 71.1445 43.8281C70.9239 43.6074 70.6246 43.4835 70.3125 43.4835C70.0005 43.4835 69.7012 43.6074 69.4805 43.8281ZM69.4805 57.1641L57.1641 69.4805C57.0542 69.5894 56.9671 69.719 56.9076 69.8618C56.8481 70.0046 56.8174 70.1578 56.8174 70.3125C56.8174 70.4672 56.8481 70.6204 56.9076 70.7632C56.9671 70.906 57.0542 71.0356 57.1641 71.1445C57.273 71.2544 57.4026 71.3415 57.5454 71.401C57.6882 71.4605 57.8414 71.4912 57.9961 71.4912C58.1508 71.4912 58.304 71.4605 58.4468 71.401C58.5896 71.3415 58.7192 71.2544 58.8281 71.1445L71.1445 58.8281C71.3652 58.6074 71.4892 58.3082 71.4892 57.9961C71.4892 57.684 71.3652 57.3847 71.1445 57.1641C70.9239 56.9434 70.6246 56.8194 70.3125 56.8194C70.0005 56.8194 69.7012 56.9434 69.4805 57.1641Z" fill="#4148FF"/>
</svg>
