<svg width="75" height="75" viewBox="0 0 75 75" fill="none" xmlns="http://www.w3.org/2000/svg">
<g clip-path="url(#clip0_11_175)">
<path fill-rule="evenodd" clip-rule="evenodd" d="M40.1786 0H34.8214V23.7199L25.9358 1.72718L20.9687 3.73401L30.0846 26.2965L12.8775 9.08944L9.08947 12.8775L25.5816 29.3697L4.20904 20.0318L2.06422 24.9408L24.6789 34.8214H0V40.1786H24.6789L2.06423 50.0591L4.20904 54.9683L25.5816 45.6304L9.08947 62.1225L12.8775 65.9104L30.0846 48.7035L20.9687 71.2661L25.9358 73.2728L34.8214 51.2801V75H40.1786V51.2801L49.0642 73.2728L54.0311 71.2661L44.9156 48.7035L62.1225 65.9104L65.9104 62.1225L49.4183 45.6304L70.791 54.9683L72.9356 50.0591L50.3213 40.1786H75V34.8214H50.3209L72.9356 24.9408L70.791 20.0318L49.4183 29.3697L65.9104 12.8775L62.1225 9.08944L44.9156 26.2964L54.0311 3.73401L49.0642 1.72718L40.1786 23.7199V0Z" fill="#4148FF"/>
</g>
<defs>
<clipPath id="clip0_11_175">
<rect width="75" height="75" fill="white"/>
</clipPath>
</defs>
</svg>
